<svg xmlns="http://www.w3.org/2000/svg" viewBox="0 0 430 159.53"><defs><style>.cls-1{fill:#fff;}.cls-2{fill:#414042;}</style></defs><g id="Layer_1" data-name="Layer 1"><rect width="430" height="100"/><path class="cls-1" d="M731.12,567.06c0,.15-.08.31-.13.47a.6.6,0,0,1,.37-.07Z" transform="translate(-411 -408)"/><path class="cls-1" d="M477.28,485a2,2,0,0,1,1.3,1.69,7.81,7.81,0,0,1,.11,1.28,4.43,4.43,0,0,0,.27,1.32c1.28,0,2.56.67,3.8,0a2.69,2.69,0,0,0,.72-.53l-.28-.12a3,3,0,0,1-.89-.48.21.21,0,0,1,.14-.36,3,3,0,0,1,.95.36l.35.17a2.79,2.79,0,0,0,.08-1.53l-.4-.23a3.09,3.09,0,0,1-.73-.51.2.2,0,0,1,.19-.33,2.8,2.8,0,0,1,.79.4l.07,0c0-.12,0-.24,0-.36v-.07l-.59-.28a1.45,1.45,0,0,1-.66-.45.18.18,0,0,1,.16-.28,1.48,1.48,0,0,1,.73.22l.4.2c.35-1.65,2.55-1.68,4-1.28a.28.28,0,0,1,.17.12.3.3,0,0,1,.34.22c.25,1,.21,2.19,1.25,2.84.66.42,1.7-.05,2.36-.3.31-.12.65-.25,1-.41a7.53,7.53,0,0,1-1.29-.79c-.18-.14,0-.43.22-.38a8.58,8.58,0,0,1,1.72.74,1.85,1.85,0,0,0,.28-.28,1,1,0,0,0,.25-.77,4.9,4.9,0,0,0-.62-.38c-.35-.19-.72-.31-1.05-.51a.21.21,0,0,1,.16-.39,3.25,3.25,0,0,1,1.16.42l-.38-.57a7.24,7.24,0,0,1-1.57-1,.21.21,0,0,1,.2-.36,4.34,4.34,0,0,1,.84.36,2,2,0,0,1,1.13-2.79,2.47,2.47,0,0,1,2.38.41,3.67,3.67,0,0,1,.88,1.12c.19.33.43.63.63.93.77.5,1.53-.5,1.62-1.15a2.26,2.26,0,0,0,0-.26l-.11-.08c-.33-.22-.7-.37-1-.59a.21.21,0,0,1,.16-.39,2.15,2.15,0,0,1,.83.31,6.37,6.37,0,0,0-.23-.61,2.17,2.17,0,0,0-.29-.24,1.81,1.81,0,0,0-.51-.23,1.74,1.74,0,0,1-.51-.13.22.22,0,0,1,0-.36,1,1,0,0,1,.91,0c-.42-.94-.92-1.83-1.35-2.77a17.14,17.14,0,0,1-1.69-6.19,6.53,6.53,0,0,1,1.84-4.46,12,12,0,0,0,3-5.82c.83-4.84-1.21-9.74-3-14.14a11.29,11.29,0,0,0-1.75-3.17,17.05,17.05,0,0,0-2.45-1.95c-1.17-.93-2.19-2.25-1.66-3.79a.33.33,0,0,1,.64.16.53.53,0,0,0,0,.12c.38.16.74.38,1.1.56l.76.38-.32-.86a21.87,21.87,0,0,1-2.39-1.63c-.16-.14,0-.37.21-.29a18.69,18.69,0,0,1,1.83,1.08c-.28-.66-.59-1.31-.92-1.95a.11.11,0,0,1-.08.11c-.14,0-.21-.18-.07-.22s.07,0,.09,0a22.63,22.63,0,0,0-13.07-11.27c-8.46-2.8-17.94-1.47-26.42.55s-16.81,5.81-22,13a26.53,26.53,0,0,0-2.53,25.4c3.58,7.78,11.49,11.75,19.4,14-.75-.44-1.5-.89-2.23-1.36a.19.19,0,0,1,.19-.34c1.37.69,2.72,1.46,4,2.24.57.15,1.14.28,1.7.41h.21c-1.72-1.07-3.45-2.17-5.08-3.37-.21-.15,0-.49.2-.36,1.9,1.08,3.73,2.31,5.53,3.53a4.33,4.33,0,0,0,.51-.31,31.93,31.93,0,0,1-4.46-3c-.17-.14,0-.41.22-.3,1.54.92,3.05,1.91,4.56,2.9a3.73,3.73,0,0,0,.12-.58,36.39,36.39,0,0,1-4.09-3,.2.2,0,0,1,.24-.32,33.63,33.63,0,0,1,3.89,2.68,5.93,5.93,0,0,0-.06-.84,23.49,23.49,0,0,1-3.73-2.27.19.19,0,0,1,.19-.34,25.61,25.61,0,0,1,3.4,1.94,7.72,7.72,0,0,0-.32-1c-.48-.07-1-.64-1.36-.89-.66-.47-1.31-1-1.93-1.48-.16-.13,0-.4.22-.29.57.35,1.13.72,1.67,1.11l.77.56.31.22c-.21-.49-.45-1-.71-1.47a.31.31,0,0,1,.53-.32,8.87,8.87,0,0,1,1.79,5.68.22.22,0,0,1,0,.32,3.94,3.94,0,0,1-.21.69l0,0a.24.24,0,0,1-.23.43h0c-.85,1.72-2.52,3.09-1.33,5.2a7.56,7.56,0,0,0,2.55,2.69,3.31,3.31,0,0,0,1.76.44,3,3,0,0,1-.09-.32l-.23-.8a.23.23,0,0,1,.45-.12l.23.8c0,.14.09.29.12.44.31,0,.63,0,1,0l.35,0c-.09-.15-.17-.31-.27-.45a5.8,5.8,0,0,0-1.06-1c-.19-.15.05-.45.25-.33a3.75,3.75,0,0,1,1.74,2,2.07,2.07,0,0,1,.81.6,13.82,13.82,0,0,0-2.25-3.82c-.2-.23.12-.56.34-.34a9.06,9.06,0,0,1,1.88,2.64c0-.45,0-.89,0-1.34s.61-.5.68-.1a55.83,55.83,0,0,1,.6,6.2c.09,1.37.1,3.13,1.69,3.64a3.19,3.19,0,0,0,2.86-.51,10.07,10.07,0,0,1-2.11-1.26.21.21,0,0,1,.2-.35,10.31,10.31,0,0,1,2.25,1.13,1.68,1.68,0,0,0,.15-.75,3.48,3.48,0,0,0-.74-.45c-.34-.15-.7-.23-1-.39-.18-.08-.07-.32.09-.33a2.59,2.59,0,0,1,1.65.54,4.53,4.53,0,0,1,0-.52,2.31,2.31,0,0,1-.59-.47c-.11-.14.06-.3.2-.27a1.26,1.26,0,0,1,.46.2.74.74,0,0,1,0-.14,1.91,1.91,0,0,1,1.11-1.21,1.36,1.36,0,0,1,1.4.4c1.63,1.15,0,3.85,2.25,4.47a6.32,6.32,0,0,0,3.77-.75.77.77,0,0,0,.19-.16,10.56,10.56,0,0,1-1.83-1.25c-.18-.17,0-.42.25-.33a8.71,8.71,0,0,1,1.63,1,10,10,0,0,0-.16-1.8c-.09-.05-.18-.11-.27-.15s-.54-.14-.69-.32a.2.2,0,0,1,.08-.33c.25-.1.58.07.81.17a4.36,4.36,0,0,1,0-.51l-.06,0-.29-.17a1.23,1.23,0,0,1-.49-.38A.2.2,0,0,1,474,487a1.12,1.12,0,0,1,.57.22l.12.06a2.35,2.35,0,0,1,.36-1A1.94,1.94,0,0,1,477.28,485Zm9.93-41.7a4.19,4.19,0,0,1,4.92-.16c1.8,1.05,2.64,3,3.4,4.88.18.43-.53.63-.71.2-.67-1.62-1.44-3.52-3.05-4.43a2.85,2.85,0,0,0-1.5-.39c2,1,3.46,4.7,3.61,6.22,0,.32-.46.37-.55.08-.66-2.09-1.73-5.63-4.38-5.6a6,6,0,0,1,2.28,2.55,24.61,24.61,0,0,1,2.82,8.08c.06.36-.49.53-.57.16a27.24,27.24,0,0,0-1.74-5.52c-.76-1.75-1.78-4.62-4.07-4.44l-.2.31c1.84.35,3,2.91,3.69,4.39a32.69,32.69,0,0,1,2.07,7.65c.3,1.87.75,4,0,5.83a2.9,2.9,0,0,0,.9,0,8.93,8.93,0,0,0,.18-5.22c-.06-.33.41-.61.59-.26a6.68,6.68,0,0,1,.26,4.92c1.51-1.6.39-5.88.19-7.66,0-.43.62-.49.74-.1.93,3.08,2.26,9.22-2.44,10-4.41.77-7.12-5.73-8.05-9C484.57,452.14,483.86,446,487.21,443.29Zm1.42,23.65c0,.21-.3.16-.36,0a6,6,0,0,1-.22-1.59c0-.23.37-.29.41-.06A5.79,5.79,0,0,1,488.63,466.94Zm-1.23-1.64a.2.2,0,0,1-.39,0,7.07,7.07,0,0,1,0-2.25.2.2,0,0,1,.4,0A7.38,7.38,0,0,1,487.4,465.3Zm-1.27-2.49a.2.2,0,0,1-.34.14,1.63,1.63,0,0,1,.09-1.89c.17-.23.55,0,.4.23A2.27,2.27,0,0,0,486.13,462.81Zm-1.51-4.13a.29.29,0,0,1,.58,0,9,9,0,0,1-.14,2.49.22.22,0,0,1-.43,0A8.65,8.65,0,0,1,484.62,458.68Zm-1.71,18.89.27-2.54c.22-2.07.09-5,1.4-6.79s2.58.9,3.33,1.93c.2.28-.24.53-.44.27-.35-.43-.77-1.28-1.23-1.57-.83-.54-1.18.05-1.37.7a.7.7,0,0,1,.16.14,18.27,18.27,0,0,1,3.84,8.25,1.75,1.75,0,0,0,.41.08h.18a9.85,9.85,0,0,0-1.28-4.16c-.13-.24.19-.54.38-.31a7,7,0,0,1,1.53,4.09,2,2,0,0,0,.2-1.88,7.56,7.56,0,0,1-1-2.29.28.28,0,0,1,.54-.15c.49,1.43,2.77,3.61,1.14,5.14-1.17,1.1-2.57.26-3.52-.69-.5,1.51-1.92,3.18-3.57,3.17a1.1,1.1,0,0,1-1.15-1A8.63,8.63,0,0,1,482.91,477.57Zm4.43-6.15c.09.25-.3.43-.42.19a11.82,11.82,0,0,0-.69-1.26c-.26-.4-.6-.75-.87-1.14-.15-.22.17-.42.35-.28A5.7,5.7,0,0,1,487.34,471.42Zm-52.93-29.26a15.24,15.24,0,0,0-1,2c-.31.73-.48,1.52-.77,2.26-.08.2-.42.21-.41,0a9.6,9.6,0,0,1,1.75-4.43C434.16,441.66,434.58,441.88,434.41,442.16Zm-3.2,11.63a7.4,7.4,0,0,0,0,7.25.18.18,0,0,1-.31.19,7.2,7.2,0,0,1,0-7.66C431,453.33,431.36,453.54,431.21,453.79Zm.37-11a27.92,27.92,0,0,1,2.28-3.25c.18-.25.6,0,.42.24A29.11,29.11,0,0,1,431.9,443,.2.2,0,0,1,431.58,442.75Zm1.78,20.6a10.09,10.09,0,0,1-.87-7.37.2.2,0,0,1,.38.1,12.22,12.22,0,0,0,.86,7.11C433.81,463.4,433.48,463.53,433.36,463.35Zm.53-15.51a20.74,20.74,0,0,1,.65-2.43.24.24,0,0,1,.47.13,20.26,20.26,0,0,1-.75,2.44C434.16,448.21,433.86,448,433.89,447.84Zm1.27,16a9.34,9.34,0,0,1-.82-3.49c0-.32.46-.32.49,0a33.9,33.9,0,0,0,.69,3.33C435.56,463.88,435.27,464,435.16,463.83Zm10.66-1.73c-.09.21-.38.09-.39-.1a9.91,9.91,0,0,1,.36-2.35c0-.33.53-.19.48.12A10.56,10.56,0,0,1,445.82,462.1Zm1.45,3.51a6.54,6.54,0,0,1-.39-1.61c0,.1,0,.21,0,.31a.19.19,0,0,1-.38.06,4.22,4.22,0,0,1,0-2.49c.05-.22.44-.18.41.05a8.26,8.26,0,0,0,0,1.11.27.27,0,0,1,.43.11,8.61,8.61,0,0,1,.38,2.35C447.65,465.68,447.37,465.81,447.27,465.61Zm2.22.82a.21.21,0,0,1-.34.1,2.71,2.71,0,0,1-.36-1,.25.25,0,0,1,.48-.13A2.7,2.7,0,0,1,449.49,466.43Zm2.48-9.17c.14-.19.45,0,.33.19a3,3,0,0,0-.28,1.6.19.19,0,0,1-.38.05A2,2,0,0,1,452,457.26Zm.8,5.85a.23.23,0,0,1-.37.11,1.65,1.65,0,0,1-.29-.66.17.17,0,0,1-.14-.09,2.6,2.6,0,0,1-.14-1.94c.07-.26.5-.23.48.06a6.62,6.62,0,0,0,0,.89c0,.19,0,.37.06.56a.27.27,0,0,1,.28.19A1.93,1.93,0,0,1,452.77,463.11Zm27.45-33.38a3.05,3.05,0,0,1-.72-.67c-.25-.25-.49-.51-.73-.76s.11-.57.33-.35.49.5.75.75a3.44,3.44,0,0,1,.65.73A.21.21,0,0,1,480.22,429.73Zm-7.65,16.39c.31.92,2.26,2.19,1.23,3.29a.22.22,0,0,1-.38-.21c.23-1.24-1.13-1.85-1.27-3C472.11,445.93,472.49,445.9,472.57,446.12ZM471,444.87a.23.23,0,0,1,.45.12,3.72,3.72,0,0,0,.13,1.1c0,.19-.22.25-.34.15A1.31,1.31,0,0,1,471,444.87Zm-1.47-1.2c.11-.21.46-.07.39.15a1.82,1.82,0,0,0-.1.73,2.56,2.56,0,0,1,.08.67.2.2,0,0,1-.33.1c-.23-.17-.25-.55-.26-.81A2.23,2.23,0,0,1,469.54,443.67Zm-2.18-2.14c0-.23.36-.19.42,0a7.73,7.73,0,0,1,.24,1.6,6.58,6.58,0,0,1,.05,1.6c0,.22-.34.18-.41,0a6.58,6.58,0,0,1-.24-1.6A7.15,7.15,0,0,1,467.36,441.53Zm6.25,22.18c-.06.38-.7.3-.67-.08a19.79,19.79,0,0,0-.66-7.92,9.61,9.61,0,0,0-3.25-4.53,7,7,0,0,1,.58.88,17.39,17.39,0,0,1,2.35,9.56c0,.29-.51.43-.56.08-.35-2.09-1-7.77-3.23-9.74l.1.13a4.17,4.17,0,0,1,.72,1.24,18.73,18.73,0,0,1,1.68,7.1,32.53,32.53,0,0,1-.71,9.33,9.66,9.66,0,0,0,1.15-3.31c.07-.39.64-.27.66.09a7.59,7.59,0,0,1-1.42,5.06,7.77,7.77,0,0,0,2.43-5.11c0-.4.65-.42.64,0a8.63,8.63,0,0,1-2.07,5.49,5.93,5.93,0,0,1-1.57,1.29,5.05,5.05,0,0,0,3-1.27c1.8-1.67,2-3.81,1.77-6.09a.45.45,0,0,1,.82-.23c1.7,3.51-1.22,7.73-4.58,8.85a7.6,7.6,0,0,1-6.51-.93.8.8,0,0,1-.87-.6,11.67,11.67,0,0,1-3.34-4.13,17.72,17.72,0,0,1-.73-13.75c1.59-3.91,5.8-7,10.16-5.91,5.91,1.53,6.44,8.48,6.46,13.5,0,.45-.65.44-.69,0-.23-3-.42-5.81-2-8.41a8.27,8.27,0,0,0-2.45-2.64C473.51,454.83,474.15,459.81,473.61,463.71Zm3.53-38.14a6.49,6.49,0,0,1,3.71,2.6.19.19,0,0,1-.3.24,19.79,19.79,0,0,0-1.73-1.42A11.24,11.24,0,0,0,477,426C476.69,425.93,476.87,425.5,477.14,425.57Z" transform="translate(-411 -408)"/><path class="cls-2" d="M434.54,445.41a20.74,20.74,0,0,0-.65,2.43c0,.2.27.37.37.14a20.26,20.26,0,0,0,.75-2.44A.24.24,0,0,0,434.54,445.41Z" transform="translate(-411 -408)"/><path class="cls-2" d="M430.83,453.57a7.2,7.2,0,0,0,0,7.66.18.18,0,0,0,.31-.19,7.4,7.4,0,0,1,0-7.25C431.36,453.54,431,453.33,430.83,453.57Z" transform="translate(-411 -408)"/><path class="cls-2" d="M434.34,460.34a9.34,9.34,0,0,0,.82,3.49c.11.21.4.05.36-.16a33.9,33.9,0,0,1-.69-3.33C434.8,460,434.31,460,434.34,460.34Z" transform="translate(-411 -408)"/><path class="cls-2" d="M433.86,439.5a27.92,27.92,0,0,0-2.28,3.25.2.2,0,0,0,.32.24,29.11,29.11,0,0,0,2.38-3.25C434.46,439.48,434,439.25,433.86,439.5Z" transform="translate(-411 -408)"/><path class="cls-2" d="M432.87,456.08a.2.2,0,0,0-.38-.1,10.09,10.09,0,0,0,.87,7.37c.12.18.45,0,.37-.16A12.22,12.22,0,0,1,432.87,456.08Z" transform="translate(-411 -408)"/><path class="cls-2" d="M448.79,465.52a2.71,2.71,0,0,0,.36,1,.21.21,0,0,0,.34-.1,2.7,2.7,0,0,0-.22-1A.25.25,0,0,0,448.79,465.52Z" transform="translate(-411 -408)"/><path class="cls-2" d="M445.79,459.65a9.91,9.91,0,0,0-.36,2.35c0,.19.3.31.39.1a10.56,10.56,0,0,0,.45-2.33C446.32,459.46,445.84,459.32,445.79,459.65Z" transform="translate(-411 -408)"/><path class="cls-2" d="M446.85,463a8.26,8.26,0,0,1,0-1.11c0-.23-.36-.27-.41-.05a4.22,4.22,0,0,0,0,2.49.19.19,0,0,0,.38-.06c0-.1,0-.21,0-.31a6.54,6.54,0,0,0,.39,1.61c.1.2.38.07.39-.11a8.61,8.61,0,0,0-.38-2.35A.27.27,0,0,0,446.85,463Z" transform="translate(-411 -408)"/><path class="cls-2" d="M485.71,468.93c-.18-.14-.5.06-.35.28.27.39.61.74.87,1.14a11.82,11.82,0,0,1,.69,1.26c.12.24.51.06.42-.19A5.7,5.7,0,0,0,485.71,468.93Z" transform="translate(-411 -408)"/><path class="cls-2" d="M487,463.05a7.07,7.07,0,0,0,0,2.25.2.2,0,0,0,.39,0,7.38,7.38,0,0,0,0-2.25A.2.2,0,0,0,487,463.05Z" transform="translate(-411 -408)"/><path class="cls-2" d="M485.88,461.06a1.63,1.63,0,0,0-.09,1.89.2.2,0,0,0,.34-.14,2.27,2.27,0,0,1,.15-1.52C486.43,461,486.05,460.83,485.88,461.06Z" transform="translate(-411 -408)"/><path class="cls-2" d="M434,441.92a9.6,9.6,0,0,0-1.75,4.43c0,.26.33.25.41,0,.29-.74.46-1.53.77-2.26a15.24,15.24,0,0,1,1-2C434.58,441.88,434.16,441.66,434,441.92Z" transform="translate(-411 -408)"/><path class="cls-2" d="M488.05,465.35a6,6,0,0,0,.22,1.59c.06.16.34.21.36,0a5.79,5.79,0,0,0-.17-1.65C488.42,465.06,488,465.12,488.05,465.35Z" transform="translate(-411 -408)"/><path class="cls-2" d="M452,459.05a3,3,0,0,1,.28-1.6c.12-.22-.19-.38-.33-.19a2,2,0,0,0-.33,1.84A.19.19,0,0,0,452,459.05Z" transform="translate(-411 -408)"/><path class="cls-2" d="M485.06,461.16a9,9,0,0,0,.14-2.49.29.29,0,0,0-.58,0,8.65,8.65,0,0,0,0,2.49A.22.22,0,0,0,485.06,461.16Z" transform="translate(-411 -408)"/><path class="cls-2" d="M483.87,481c1.65,0,3.07-1.66,3.57-3.17.95,1,2.35,1.79,3.52.69,1.63-1.53-.65-3.71-1.14-5.14a.28.28,0,0,0-.54.15,7.56,7.56,0,0,0,1,2.29,2,2,0,0,1-.2,1.88,7,7,0,0,0-1.53-4.09c-.19-.23-.51.07-.38.31a9.85,9.85,0,0,1,1.28,4.16h-.18a1.75,1.75,0,0,1-.41-.08,18.27,18.27,0,0,0-3.84-8.25.7.7,0,0,0-.16-.14c.19-.65.54-1.24,1.37-.7.46.29.88,1.14,1.23,1.57.2.26.64,0,.44-.27-.75-1-2-3.74-3.33-1.93s-1.18,4.72-1.4,6.79l-.27,2.54a8.63,8.63,0,0,0-.19,2.37A1.1,1.1,0,0,0,483.87,481Zm3.34-4.38.13.22a.36.36,0,0,0-.2,0A2.5,2.5,0,0,0,487.21,476.57Z" transform="translate(-411 -408)"/><path class="cls-2" d="M493.63,464.78c4.7-.82,3.37-7,2.44-10-.12-.39-.78-.33-.74.1.2,1.78,1.32,6.06-.19,7.66a6.68,6.68,0,0,0-.26-4.92c-.18-.35-.65-.07-.59.26a8.93,8.93,0,0,1-.18,5.22,2.9,2.9,0,0,1-.9,0c.77-1.8.32-4,0-5.83a32.69,32.69,0,0,0-2.07-7.65c-.64-1.48-1.85-4-3.69-4.39l.2-.31c2.29-.18,3.31,2.69,4.07,4.44a27.24,27.24,0,0,1,1.74,5.52c.08.37.63.2.57-.16a24.61,24.61,0,0,0-2.82-8.08,6,6,0,0,0-2.28-2.55c2.65,0,3.72,3.51,4.38,5.6.09.29.58.24.55-.08-.15-1.52-1.63-5.25-3.61-6.22a2.85,2.85,0,0,1,1.5.39c1.61.91,2.38,2.81,3.05,4.43.18.43.89.23.71-.2-.76-1.84-1.6-3.83-3.4-4.88a4.19,4.19,0,0,0-4.92.16c-3.35,2.69-2.64,8.85-1.63,12.48C486.51,459.05,489.22,465.55,493.63,464.78Z" transform="translate(-411 -408)"/><path class="cls-2" d="M469.91,445.22a2.56,2.56,0,0,0-.08-.67,1.82,1.82,0,0,1,.1-.73c.07-.22-.28-.36-.39-.15a2.23,2.23,0,0,0-.22.84c0,.26,0,.64.26.81A.2.2,0,0,0,469.91,445.22Z" transform="translate(-411 -408)"/><path class="cls-2" d="M452.34,462c0-.19,0-.37-.06-.56a6.62,6.62,0,0,1,0-.89c0-.29-.41-.32-.48-.06a2.6,2.6,0,0,0,.14,1.94.17.17,0,0,0,.14.09,1.65,1.65,0,0,0,.29.66.23.23,0,0,0,.37-.11,1.93,1.93,0,0,0-.15-.88A.27.27,0,0,0,452.34,462Z" transform="translate(-411 -408)"/><path class="cls-2" d="M473.26,454.3c1.6,2.6,1.79,5.45,2,8.41,0,.44.7.45.69,0,0-5-.55-12-6.46-13.5-4.36-1.12-8.57,2-10.16,5.91a17.72,17.72,0,0,0,.73,13.75,11.67,11.67,0,0,0,3.34,4.13.8.8,0,0,0,.87.6,7.6,7.6,0,0,0,6.51.93c3.36-1.12,6.28-5.34,4.58-8.85a.45.45,0,0,0-.82.23c.19,2.28,0,4.42-1.77,6.09a5.05,5.05,0,0,1-3,1.27,5.93,5.93,0,0,0,1.57-1.29,8.63,8.63,0,0,0,2.07-5.49c0-.42-.61-.4-.64,0a7.77,7.77,0,0,1-2.43,5.11,7.59,7.59,0,0,0,1.42-5.06c0-.36-.59-.48-.66-.09a9.66,9.66,0,0,1-1.15,3.31,32.53,32.53,0,0,0,.71-9.33,18.73,18.73,0,0,0-1.68-7.1,4.17,4.17,0,0,0-.72-1.24l-.1-.13c2.21,2,2.88,7.65,3.23,9.74.05.35.53.21.56-.08a17.39,17.39,0,0,0-2.35-9.56,7,7,0,0,0-.58-.88,9.61,9.61,0,0,1,3.25,4.53,19.79,19.79,0,0,1,.66,7.92c0,.38.61.46.67.08.54-3.9-.1-8.88-2.8-12A8.27,8.27,0,0,1,473.26,454.3Z" transform="translate(-411 -408)"/><path class="cls-2" d="M471.59,446.09a3.72,3.72,0,0,1-.13-1.1.23.23,0,0,0-.45-.12,1.31,1.31,0,0,0,.24,1.37C471.37,446.34,471.62,446.28,471.59,446.09Z" transform="translate(-411 -408)"/><path class="cls-2" d="M473.42,449.2a.22.22,0,0,0,.38.21c1-1.1-.92-2.37-1.23-3.29-.08-.22-.46-.19-.42.06C472.29,447.35,473.65,448,473.42,449.2Z" transform="translate(-411 -408)"/><path class="cls-2" d="M467.66,444.73c.07.18.38.22.41,0a6.58,6.58,0,0,0-.05-1.6,7.73,7.73,0,0,0-.24-1.6c-.06-.19-.4-.23-.42,0a7.15,7.15,0,0,0,.06,1.6A6.58,6.58,0,0,0,467.66,444.73Z" transform="translate(-411 -408)"/><path class="cls-2" d="M476,487.21c.12-.29.43-.86.81-.9.58-.06.81.85.87,1.25a5.07,5.07,0,0,0,.53,2.28.44.44,0,0,0,.17.38,4.79,4.79,0,0,0,5.88,0,2.8,2.8,0,0,0,1-2.43,12.55,12.55,0,0,0-.31-1.38c-.19-.84-.4-1.22,1-1.77a3.6,3.6,0,0,1,1.69-.13h0a5.24,5.24,0,0,0,1,3.49c.91,1.23,2.48.69,3.67.25s2.56-1.09,3-2.34-.69-2.14-1.49-2.93a1.56,1.56,0,0,1,1.28-2.19c.92-.08,1.22.81,1.66,1.5a.51.51,0,0,0,.11.67,2.35,2.35,0,0,0,3.45-.54c1.53-1.89-.09-3.84-1.14-5.45-1.32-2-2.69-5.75-1.95-8.18.68-2.22,2.91-3.71,3.89-5.8,2.15-4.59,1.15-9.74-.49-14.31-.84-2.34-1.68-5-3.22-7a7.11,7.11,0,0,0-1.32-1.31.6.6,0,0,0,0-.23,26.59,26.59,0,0,0-6.43-13.34,24.39,24.39,0,0,0-12.36-6.85,42.18,42.18,0,0,0-14.35-.59,77,77,0,0,0-14.81,3c-8.5,2.68-16.76,7.79-20.88,16-4,7.88-4,19,.9,26.44,5.12,7.79,14.16,11.33,22.89,13.32h0a3.12,3.12,0,0,0-.38,3.73,8.41,8.41,0,0,0,4.06,4.11,4.46,4.46,0,0,0,2.23.27,6.72,6.72,0,0,1,1.72-.23c.92.16,1.1,1,1.24,1.81a.32.32,0,0,0,.13.2l.18,1.67c.17,1.51.58,3.09,2.07,3.77a5.45,5.45,0,0,0,4.25,0,2.11,2.11,0,0,0,1.18-1.39,3.32,3.32,0,0,0,.07-1.13c0-.21-.07-.43-.1-.64a.91.91,0,0,1,.51-1.43c.42,1.28-.06,2.76.67,3.94a3.17,3.17,0,0,0,3.2,1.23c1.21-.15,3-.72,3.73-1.79A2.46,2.46,0,0,0,476,490c-.06-.52-.2-1.09-.29-1.63v-.07a.21.21,0,0,0,0-.14s0-.06,0-.09.06-.26.08-.4a.19.19,0,0,0,0-.13l0-.06A.39.39,0,0,0,476,487.21Zm18.67-47.7c-1.16-.54-2.55-1.17-2.58-2.51.3.17.62.31.92.46s.81.41,1.22.6C494.39,438.54,494.54,439,494.68,439.51Zm-19.6,46.72a2.35,2.35,0,0,0-.36,1l-.12-.06A1.12,1.12,0,0,0,474,487a.2.2,0,0,0-.17.29,1.23,1.23,0,0,0,.49.38l.29.17.06,0a4.36,4.36,0,0,0,0,.51c-.23-.1-.56-.27-.81-.17a.2.2,0,0,0-.08.33c.15.18.47.22.69.32s.18.1.27.15a10,10,0,0,1,.16,1.8,8.71,8.71,0,0,0-1.63-1c-.21-.09-.43.16-.25.33a10.56,10.56,0,0,0,1.83,1.25.77.77,0,0,1-.19.16,6.32,6.32,0,0,1-3.77.75c-2.23-.62-.62-3.32-2.25-4.47a1.36,1.36,0,0,0-1.4-.4,1.91,1.91,0,0,0-1.11,1.21.74.74,0,0,0,0,.14,1.26,1.26,0,0,0-.46-.2c-.14,0-.31.13-.2.27a2.31,2.31,0,0,0,.59.47,4.53,4.53,0,0,0,0,.52,2.59,2.59,0,0,0-1.65-.54c-.16,0-.27.25-.09.33.34.16.7.24,1,.39a3.48,3.48,0,0,1,.74.45,1.68,1.68,0,0,1-.15.75,10.31,10.31,0,0,0-2.25-1.13.21.21,0,0,0-.2.35,10.07,10.07,0,0,0,2.11,1.26,3.19,3.19,0,0,1-2.86.51c-1.59-.51-1.6-2.27-1.69-3.64a55.83,55.83,0,0,0-.6-6.2c-.07-.4-.68-.28-.68.1s0,.89,0,1.34a9.06,9.06,0,0,0-1.88-2.64c-.22-.22-.54.11-.34.34a13.82,13.82,0,0,1,2.25,3.82,2.07,2.07,0,0,0-.81-.6,3.75,3.75,0,0,0-1.74-2c-.2-.12-.44.18-.25.33a5.8,5.8,0,0,1,1.06,1c.1.14.18.3.27.45l-.35,0c-.33,0-.65,0-1,0,0-.15-.08-.3-.12-.44l-.23-.8a.23.23,0,0,0-.45.12l.23.8a3,3,0,0,0,.09.32,3.31,3.31,0,0,1-1.76-.44,7.56,7.56,0,0,1-2.55-2.69c-1.19-2.11.48-3.48,1.33-5.2h0a.24.24,0,0,0,.23-.43l0,0a3.94,3.94,0,0,0,.21-.69.22.22,0,0,0,0-.32,8.87,8.87,0,0,0-1.79-5.68.31.31,0,0,0-.53.32c.26.49.5,1,.71,1.47l-.31-.22-.77-.56c-.54-.39-1.1-.76-1.67-1.11-.18-.11-.38.16-.22.29.62.52,1.27,1,1.93,1.48.35.25.88.82,1.36.89a7.72,7.72,0,0,1,.32,1,25.61,25.61,0,0,0-3.4-1.94.19.19,0,0,0-.19.34,23.49,23.49,0,0,0,3.73,2.27,5.93,5.93,0,0,1,.06.84,33.63,33.63,0,0,0-3.89-2.68.2.2,0,0,0-.24.32,36.39,36.39,0,0,0,4.09,3,3.73,3.73,0,0,1-.12.58c-1.51-1-3-2-4.56-2.9-.18-.11-.39.16-.22.3a31.93,31.93,0,0,0,4.46,3,4.33,4.33,0,0,1-.51.31c-1.8-1.22-3.63-2.45-5.53-3.53-.24-.13-.41.21-.2.36,1.63,1.2,3.36,2.3,5.08,3.37h-.21c-.56-.13-1.13-.26-1.7-.41-1.32-.78-2.67-1.55-4-2.24a.19.19,0,0,0-.19.34c.73.47,1.48.92,2.23,1.36-7.91-2.27-15.82-6.24-19.4-14a26.53,26.53,0,0,1,2.53-25.4c5.19-7.17,13.61-11,22-13s18-3.35,26.42-.55a22.63,22.63,0,0,1,13.07,11.27s-.05,0-.09,0-.07.26.07.22a.11.11,0,0,0,.08-.11c.33.64.64,1.29.92,1.95a18.69,18.69,0,0,0-1.83-1.08c-.17-.08-.37.15-.21.29a21.87,21.87,0,0,0,2.39,1.63l.32.86-.76-.38c-.36-.18-.72-.4-1.1-.56a.53.53,0,0,1,0-.12.33.33,0,0,0-.64-.16c-.53,1.54.49,2.86,1.66,3.79a17.05,17.05,0,0,1,2.45,1.95,11.29,11.29,0,0,1,1.75,3.17c1.77,4.4,3.81,9.3,3,14.14a12,12,0,0,1-3,5.82,6.53,6.53,0,0,0-1.84,4.46,17.14,17.14,0,0,0,1.69,6.19c.43.94.93,1.83,1.35,2.77a1,1,0,0,0-.91,0,.22.22,0,0,0,0,.36,1.74,1.74,0,0,0,.51.13,1.81,1.81,0,0,1,.51.23,2.17,2.17,0,0,1,.29.24,6.37,6.37,0,0,1,.23.61,2.15,2.15,0,0,0-.83-.31.21.21,0,0,0-.16.39c.33.22.7.37,1,.59l.11.08a2.26,2.26,0,0,1,0,.26c-.09.65-.85,1.65-1.62,1.15-.2-.3-.44-.6-.63-.93a3.67,3.67,0,0,0-.88-1.12,2.47,2.47,0,0,0-2.38-.41,2,2,0,0,0-1.13,2.79,4.34,4.34,0,0,0-.84-.36.21.21,0,0,0-.2.36,7.24,7.24,0,0,0,1.57,1l.38.57a3.25,3.25,0,0,0-1.16-.42.21.21,0,0,0-.16.39c.33.2.7.32,1.05.51a4.9,4.9,0,0,1,.62.38,1,1,0,0,1-.25.77,1.85,1.85,0,0,1-.28.28,8.58,8.58,0,0,0-1.72-.74c-.21-.05-.4.24-.22.38a7.53,7.53,0,0,0,1.29.79c-.32.16-.66.29-1,.41-.66.25-1.7.72-2.36.3-1-.65-1-1.81-1.25-2.84a.3.3,0,0,0-.34-.22.28.28,0,0,0-.17-.12c-1.46-.4-3.66-.37-4,1.28l-.4-.2a1.48,1.48,0,0,0-.73-.22.18.18,0,0,0-.16.28,1.45,1.45,0,0,0,.66.45l.59.28v.07c0,.12,0,.24,0,.36l-.07,0a2.8,2.8,0,0,0-.79-.4.2.2,0,0,0-.19.33,3.09,3.09,0,0,0,.73.51l.4.23a2.79,2.79,0,0,1-.08,1.53l-.35-.17a3,3,0,0,0-.95-.36.21.21,0,0,0-.14.36,3,3,0,0,0,.89.48l.28.12a2.69,2.69,0,0,1-.72.53c-1.24.63-2.52,0-3.8,0a4.43,4.43,0,0,1-.27-1.32,7.81,7.81,0,0,0-.11-1.28,1.78,1.78,0,0,0-3.5-.45Z" transform="translate(-411 -408)"/></g><g id="Layer_2" data-name="Layer 2"><path class="cls-1" d="M542.93,440.14v7l-14.8,7.47,14.8,7.47v7l-22.28-11.53v-5.89Z" transform="translate(-411 -408)"/><path class="cls-1" d="M588,452.86c0,12.19-8.49,19-22.07,19h-17V471H553V437.58l-4.58-2.78h18.16C580.09,434.8,588,441.13,588,452.86Zm-11.83.05c0-11.27-3.81-17.29-10.55-17.29H564.3V471h.83C571.75,471,576.12,464.33,576.13,452.91Z" transform="translate(-411 -408)"/><path class="cls-1" d="M613,445.71v13.63h-.05c-5.35-5.92-7.77-7.25-9.57-6.94V471h3.86v.82H590.47V471H593V452.34l-2.93-2.52,13.22-4.42v6.43c2.93-3.86,6.28-6.28,8.64-6.28A3.1,3.1,0,0,1,613,445.71Z" transform="translate(-411 -408)"/><path class="cls-1" d="M616.09,458.83c0-7.36,5.76-13.22,14.14-13.22s14.61,5.14,14.61,13.22c0,7.51-4.79,13.53-14.56,13.53C622.87,472.36,616.08,467.11,616.09,458.83Zm22.06,9.05c0-4.32-8.64-20.42-13.17-20.42-1.28,0-2.05.93-2.05,2.52,0,5,8.89,20.52,13.11,20.52C637.43,470.5,638.15,469.63,638.15,467.88Z" transform="translate(-411 -408)"/><path class="cls-1" d="M678.58,457.8c0,9.06-5,14.56-11.94,14.56a11.22,11.22,0,0,1-6.17-1.85v13.37h4.12v.82h-17v-.82h2.57V452.25l-2.94-2.53,13.22-4.62v5.09c2.73-2.78,5.92-4.58,8.95-4.58C674.62,445.61,678.58,449.83,678.58,457.8Zm-11,2.93c0-6.89-1.49-10.33-4.94-10.33a5.3,5.3,0,0,0-2.16.51v18.72a4.38,4.38,0,0,0,2.52.77C665.67,470.4,667.57,466.91,667.57,460.73Z" transform="translate(-411 -408)"/><path class="cls-1" d="M721,452.87c0,12.19-8.49,19-22.07,19h-17V471H686V437.59l-4.58-2.78h18.16C713.09,434.81,721,441.14,721,452.87Zm-11.83.05c0-11.26-3.8-17.28-10.54-17.28H697.3V471h.82C704.76,471,709.13,464.34,709.13,452.92Z" transform="translate(-411 -408)"/><path class="cls-1" d="M747.91,467.22c-2.16,3.3-5.61,5.15-10.39,5.15-7.26,0-13.22-5.05-13.22-13,0-7.51,5-13.73,13.27-13.73,4.84,0,8.18,2.83,8.18,6.58,0,4.27-3.29,8-9.47,10.34,2.93,2.88,6.64,4.79,10.09,4.79a7.24,7.24,0,0,0,1.49-.16Zm-17.23-16.77c0,4.27,2.21,8.59,5.3,11.78a10,10,0,0,0,2-6.53c0-4.47-3-8.28-5.19-8.28C731.45,447.42,730.68,448.55,730.68,450.45Z" transform="translate(-411 -408)"/><path class="cls-1" d="M777,446.65l-3.45,2.52-11.47,23.46h-1.34l-10.9-23.46-3.44-2.52h18l-3.45,2.52,5,13.84,5-13.84-3.6-2.52Z" transform="translate(-411 -408)"/><path class="cls-1" d="M802.06,437.58l-23.2,42.34h-5l23.11-42.34Z" transform="translate(-411 -408)"/><path class="cls-1" d="M807.71,469.15v-7l14.79-7.47-14.79-7.47v-7L830,451.67v5.95Z" transform="translate(-411 -408)"/></g></svg>