<svg id="Ñëîé_1" data-name="Ñëîé 1" xmlns="http://www.w3.org/2000/svg" xmlns:xlink="http://www.w3.org/1999/xlink" viewBox="0 0 11207.49 7864.77"><defs><style>.cls-1{fill:none;}.cls-2{clip-path:url(#clip-path);}.cls-3{fill:#fccadb;}</style><clipPath id="clip-path" transform="translate(3800.02 2367.04)"><rect class="cls-1" width="5000" height="3000"/></clipPath></defs><g class="cls-2"><rect class="cls-3" x="3800.02" y="2367.04" width="5000" height="3000"/><path d="M3867.29,4984.87,3063.28,3870c-102.43-142-254.55-241.95-427.29-280.66L-384.62,2912.55q-15.93,3.13-31.41,5l3019.54,769.31c177.07,45.12,331.1,153.05,432.65,303.17l797.1,1178.36c446.63,660.26,1489.59,248,1350.9-533.93l-6.6-37.21C5169.15,5242,4283.78,5562.4,3867.29,4984.87Z" transform="translate(3800.02 2367.04)"/><path d="M5281.42-1406.35,4925-154.2c-83.55,293.54,33.32,606.54,290.14,777.11L5541.61,839.7l21,7.39q12.32,4.35,24.16,9.16L5350.06,688.6c-260-184.16-371.48-511.83-276.8-813.51l403.91-1286.87C5680.41-2059.32,4988-2557.4,4448-2296.15,4925.62-2387.06,5439.65-1962.29,5281.42-1406.35Z" transform="translate(3800.02 2367.04)"/><path d="M-3103.43,940.27,2274-569.79l.31-.73a427.79,427.79,0,0,1,25.39-49.13l-5540,1395.43c-685.17,172.58-741.49,1069.27-167.3,1360.15C-3776.1,1791.46-3682.46,1102.87-3103.43,940.27Z" transform="translate(3800.02 2367.04)"/><path d="M7131,1951.52c272,382.14,94.52,962.62-416.78,1090.53l-1084.5,271.3c-335.06,83.82-557,386.74-542.82,716.07l3.46,12.87a710.27,710.27,0,0,1,21.16,115.57l7.59,32c6.17-331.82,240.82-626.61,580.64-701.88l1126.6-249.57C7438.64,3102.74,7610.82,2331.19,7131,1951.52Z" transform="translate(3800.02 2367.04)"/><path d="M4448-2296.15A687.81,687.81,0,0,0,4246.78-2224a677.65,677.65,0,0,1,105.4-16.4A735.38,735.38,0,0,1,4448-2296.15Z" transform="translate(3800.02 2367.04)"/><path d="M-3295.54,2182.11a787.13,787.13,0,0,1-112.15-46.18c53.7,50.21,117.23,93.12,190.5,126A649.07,649.07,0,0,1-3295.54,2182.11Z" transform="translate(3800.02 2367.04)"/><path d="M7097,1926q17.55,12.43,34.07,25.52c-43.83-61.57-99.33-118-167-166.54a656,656,0,0,1,57.67,87.72Z" transform="translate(3800.02 2367.04)"/><path d="M5149.31,4438l28.25,159.27a759.13,759.13,0,0,0-16.21-164.08l-11.66-56.3Q5150.89,4407.94,5149.31,4438Z" transform="translate(3800.02 2367.04)"/><path d="M4246.78-2224a669.12,669.12,0,0,0-194.57,80.37A655.53,655.53,0,0,1,4155-2164.39,721.15,721.15,0,0,1,4246.78-2224Z" transform="translate(3800.02 2367.04)"/><path d="M5119.54,4231.49l30.15,145.43A734.48,734.48,0,0,0,5130,4235.7l-10.9-45.88Q5118.74,4210.56,5119.54,4231.49Z" transform="translate(3800.02 2367.04)"/><path d="M-3104.21,2302.28a773.06,773.06,0,0,1-113-40.34c54.85,47,119.28,86.36,193.12,115.39A625.24,625.24,0,0,1-3104.21,2302.28Z" transform="translate(3800.02 2367.04)"/><path d="M6940.79,1768.93q11.85,7.88,23.24,16c-45.61-58.58-102.72-111.62-171.76-156.36a631.93,631.93,0,0,1,58,80.21Z" transform="translate(3800.02 2367.04)"/><path d="M4900.18-1370,4632-192c-62.88,276.15,62.54,559.75,311.39,704.12l480.15,278.55a507.88,507.88,0,0,1,55.77,27.08l19.39,6.84L5079.53,564.07c-253.11-157.29-374.62-455.6-301.68-740.62L5089-1392.35c128.81-503.37-304.94-880.94-736.81-848.07a790.1,790.1,0,0,0-89.71,71.78C4645.38-2153.52,5002.59-1819.75,4900.18-1370Z" transform="translate(3800.02 2367.04)"/><path d="M-2814.4,1244.15,2218.44-466.17a389.8,389.8,0,0,1,33.34-52.91l.58-1.34L-2961.31,1096.45c-516,160-615.15,745.15-334.23,1085.66q26,8.46,53.35,15.45l73.29,18.67C-3373.52,1889.61-3269.23,1398.72-2814.4,1244.15Z" transform="translate(3800.02 2367.04)"/><path d="M6469.59,2672.61,5470.11,2980.9c-339.57,104.75-537.58,447.58-454.4,782.64l26.9,89.75q4.08,13.64,7.55,27.16c-39.24-328.46,170.28-643.34,502.94-736.19l1042.1-290.88c455.82-127.23,623.15-621.86,426.5-980.68l-135.46-96C7037.5,2110.8,6882,2545.41,6469.59,2672.61Z" transform="translate(3800.02 2367.04)"/><path d="M3909.57,4621.17l-809.12-989.73c-103.08-126.09-250.42-210.58-413.86-237.31L-331.84,2900.5l-25.82,6.06,3021.33,585.13c168.2,32.57,318.09,124.67,421,258.69l808,1051.95c408.4,531.72,1225.74,227.8,1256.61-364.3l-19.07-107.51a730.8,730.8,0,0,1-10.7-99l-5.08-24.54C5127.21,4795.76,4325.52,5130,3909.57,4621.17Z" transform="translate(3800.02 2367.04)"/><path d="M-2910.51,2411.84a760.51,760.51,0,0,1-113.56-34.51c55.84,43.78,121,79.6,195.27,104.76A602.88,602.88,0,0,1-2910.51,2411.84Z" transform="translate(3800.02 2367.04)"/><path d="M6780.14,1620.92q6.13,3.81,12.13,7.7c-47.23-55.55-105.81-105.17-176.09-146.06a606.6,606.6,0,0,1,57.47,72.18Z" transform="translate(3800.02 2367.04)"/><path d="M4052.21-2143.65a649.91,649.91,0,0,0-187.55,88.24,637,637,0,0,1,100-24.89A705.76,705.76,0,0,1,4052.21-2143.65Z" transform="translate(3800.02 2367.04)"/><path d="M5066.81,3969.59l22.5,94.69q-1.64-17.46-2.39-34.86l-24.62-91.78Q5065,3953.72,5066.81,3969.59Z" transform="translate(3800.02 2367.04)"/><path d="M5100.89,4141.48l13.57,65.47q-.53-24.26-2.92-49.09l-22.23-93.58A704.2,704.2,0,0,0,5100.89,4141.48Z" transform="translate(3800.02 2367.04)"/><path d="M-3168.9,2216.23a631,631,0,0,0,64.69,86.05q18.45,5,37.54,9.34l90.84,20.35a618.32,618.32,0,0,1-45.47-78.13Z" transform="translate(3800.02 2367.04)"/><path d="M6886.24,1776.75a627.49,627.49,0,0,0-35.94-67.92l-140.4-93.24q13.67,26.36,24.57,53.65Z" transform="translate(3800.02 2367.04)"/><path d="M4175.47-2080.88l54.89-56.44q15.82-16.28,32.11-31.32a677.61,677.61,0,0,0-107.49,4.25,776.87,776.87,0,0,0-85,75.42A678.6,678.6,0,0,1,4175.47-2080.88Z" transform="translate(3800.02 2367.04)"/><path d="M6492.06,1410.54l123.33,71.55.79.47c-46.26-49.84-102.59-94-169.27-130l-10.87-5.87A583.76,583.76,0,0,1,6492.06,1410.54Z" transform="translate(3800.02 2367.04)"/><path d="M-2828.8,2482.09c56.69,40.53,122.43,72.81,197,94.08a579.31,579.31,0,0,1-83.06-65.43A749,749,0,0,1-2828.8,2482.09Z" transform="translate(3800.02 2367.04)"/><path d="M3864.66-2055.41a631.38,631.38,0,0,0-180.26,95.8,612.87,612.87,0,0,1,97-28.9A688.88,688.88,0,0,1,3864.66-2055.41Z" transform="translate(3800.02 2367.04)"/><path d="M5062.3,3937.64q-4.73-28.29-12.14-57.19,1.47,12.33,3.42,24.69Z" transform="translate(3800.02 2367.04)"/><path d="M6709.9,1615.59a601.76,601.76,0,0,0-36.25-60.85l-145.55-90.45q13.69,23.13,25,47.2Z" transform="translate(3800.02 2367.04)"/><path d="M-2975.83,2332a605.89,605.89,0,0,0,65.32,79.87q10.74,2.38,21.69,4.51l108.65,21.05a590.9,590.9,0,0,1-46.09-71.92Z" transform="translate(3800.02 2367.04)"/><path d="M3985.5-1998l68.57-74.27q7.88-8.52,15.88-16.7a656.38,656.38,0,0,0-105.33,8.67,765.65,765.65,0,0,0-80.21,78.86A656.82,656.82,0,0,1,3985.5-1998Z" transform="translate(3800.02 2367.04)"/><path d="M-2507.61,1513.6,2173.46-361.93l21.7-52.36L-2663,1383.25c-402,148.74-507.36,565.13-358.26,870.59l162.56,41.41C-2967.6,2013.71-2864.11,1656.43-2507.61,1513.6Z" transform="translate(3800.02 2367.04)"/><path d="M5053.58,3905.14l-34.82-129.74c-1.06-4-2.06-7.9-3.05-11.86l-49.32-164.6c-96.76-322.88,85.76-664.22,414.65-775.45l956.73-323.56c377.86-127.79,521-519.65,396.7-830.69L6571,1553.44c110.32,290.84-20.2,652.93-370.9,782.12l-913.94,336.69C4972,2788,4805,3120.31,4906.76,3427.23L4986.94,3669C5193.2,4290.92,4368,4750.49,3918.13,4264.27L3115.22,3396.5c-102.29-110.55-243.63-180.47-397-196.4L-268.74,2890q-12.94,1.31-25.52,1.73l-12.14,2.85,3011.15,402.34c158.5,21.18,303,98.27,405.85,216.53L3918,4441.7c425.06,488.7,1217.19,117.22,1148.8-472.11l-3.14-13.25Q5057.58,3930.73,5053.58,3905.14Z" transform="translate(3800.02 2367.04)"/><path d="M4534.72-1300.9,4345.18-202.82c-44.44,257.43,86.65,511.73,325.45,631.37L5330.18,759l42.68,13.54L4807,466.92C4562.9,335.1,4434.28,66.18,4487.65-200.76l227.67-1138.67c79.29-396.53-208-689.87-539.85-741.45l-97.16,99.9C4363.36-1907.77,4594.93-1649.71,4534.72-1300.9Z" transform="translate(3800.02 2367.04)"/><path d="M3684.4-1959.61a612.38,612.38,0,0,0-172.66,103,592.91,592.91,0,0,1,94-32.73A673.44,673.44,0,0,1,3684.4-1959.61Z" transform="translate(3800.02 2367.04)"/><path d="M6305.8,1276.35,6436,1346.68c-44.79-44.15-98.37-82.94-160.92-114.28l-23.2-11.62A560.06,560.06,0,0,1,6305.8,1276.35Z" transform="translate(3800.02 2367.04)"/><path d="M-2527.66,2597.73a730.6,730.6,0,0,1-104.19-21.56c57.35,37.27,123.5,66,198.08,83.39a557.54,557.54,0,0,1-84-60.51Z" transform="translate(3800.02 2367.04)"/><path d="M6528.1,1464.29a575.92,575.92,0,0,0-36-53.75l-151-87.61q13.44,19.88,25,40.62Z" transform="translate(3800.02 2367.04)"/><path d="M-2780.17,2437.4a579.39,579.39,0,0,0,65.26,73.34q2.94.51,5.89,1l126.68,20.72a562.51,562.51,0,0,1-46.36-65.72Z" transform="translate(3800.02 2367.04)"/><path d="M3801.85-1907.29l81.58-93,1-1.11a634.42,634.42,0,0,0-103,12.93,745.24,745.24,0,0,0-62.77,66.72l-12.82,15.41A634.58,634.58,0,0,1,3801.85-1907.29Z" transform="translate(3800.02 2367.04)"/><path d="M4078.31-1981a671.25,671.25,0,0,0-92.81-17l-94.91,102.78a652.79,652.79,0,0,1,82.23,22.71Z" transform="translate(3800.02 2367.04)"/><path d="M-2858.74,2295.25a601.2,601.2,0,0,0,32.48,70.23l164.05,36.76a579.69,579.69,0,0,1-23.52-62.91Z" transform="translate(3800.02 2367.04)"/><path d="M6571,1553.44q-8.06-21.26-17.83-42l-168.95-112.2q7.19,15.48,13.38,31.32Z" transform="translate(3800.02 2367.04)"/><path d="M6115.05,1152.21l136.87,68.57c-42.92-38.56-93.41-72.15-151.53-99.06L6064,1104.89A538.4,538.4,0,0,1,6115.05,1152.21Z" transform="translate(3800.02 2367.04)"/><path d="M3511.74-1856.65A593.71,593.71,0,0,0,3347-1746.95a573.22,573.22,0,0,1,90.74-36.36A658.15,658.15,0,0,1,3511.74-1856.65Z" transform="translate(3800.02 2367.04)"/><path d="M-2345.13,2674.35a716.45,716.45,0,0,1-88.64-14.79c57.89,34,124.33,59.2,198.84,72.74A535.93,535.93,0,0,1-2319.3,2677Z" transform="translate(3800.02 2367.04)"/><path d="M3624.79-1809l81.06-97.37a611.22,611.22,0,0,0-100.14,17q-23.61,24.59-45.68,52.47l-26,32.86A611.62,611.62,0,0,1,3624.79-1809Z" transform="translate(3800.02 2367.04)"/><path d="M6341,1322.93a549.61,549.61,0,0,0-35.24-46.58l-156.95-84.77q12.82,16.55,24.16,33.87Z" transform="translate(3800.02 2367.04)"/><path d="M-2582.34,2532.45a554.57,554.57,0,0,0,64.55,66.6l135.08,18a533.94,533.94,0,0,1-46.29-59.57Z" transform="translate(3800.02 2367.04)"/><path d="M-2662.21,2402.24a573.11,573.11,0,0,0,33.51,64.49l165.48,32.05a551.75,551.75,0,0,1-24.85-57.52Z" transform="translate(3800.02 2367.04)"/><path d="M6384.2,1399.29q-8.41-18.13-18.2-35.74l-175.19-108.87q7,12.33,13.23,25Z" transform="translate(3800.02 2367.04)"/><path d="M3890.59-1895.22a648.33,648.33,0,0,0-88.74-12.07l-92.64,105.68a629.57,629.57,0,0,1,78.77,17.53Z" transform="translate(3800.02 2367.04)"/><path d="M5908.56,2032.49,5080,2389c-284.82,122.56-422.76,435.13-313.35,710.09l86.18,216.6c221.68,557.17-518.68,1021.23-959,601.08l-785.76-749.85c-100.11-95.53-234.31-151.85-377-158.19L-204.24,2878.28q-14.2,3.67-28,6.33L2727,3104c148.09,11,286,74,387.36,176.94L3910,4089.19c445.83,452.88,1228.36-10,1013.57-599.48l-83.51-229.18c-106-290.93,46.13-613.66,345.61-733.17l871.18-347.67c330.33-131.82,447.74-475.32,340.69-749.08l-183.77-130.18C6328.6,1559.94,6225.54,1896.1,5908.56,2032.49Z" transform="translate(3800.02 2367.04)"/><path d="M4187.47-1200.8,4066.76-187.39C4038.46,50.18,4172.34,275.5,4399.16,372l803.2,341.82a502.26,502.26,0,0,1,73.91,28l11.28,3.58L4534.6,396.93c-233-107.87-365.88-347.62-329.81-595.25l153.88-1056.3c44.61-306.17-142.75-533.27-385.85-617.89L3861.2-1757.74C4067.32-1668.61,4219.4-1468.86,4187.47-1200.8Z" transform="translate(3800.02 2367.04)"/><path d="M-2186,1747.62,2122.69-250.11,2140-294.16c1.48-3.77,3-7.49,4.62-11.17L-2348.49,1635.09c-317.12,137-416.85,446.84-337.24,704.24l180.48,46C-2563.92,2150.79-2469.25,1878.93-2186,1747.62Z" transform="translate(3800.02 2367.04)"/><path d="M-2161.79,2741.57a696.69,696.69,0,0,1-73.14-9.27c58.26,30.78,124.81,52.42,199.08,62.11a513.49,513.49,0,0,1-83.94-49.72Z" transform="translate(3800.02 2367.04)"/><path d="M6064,1104.89c-40.61-33.05-87.57-61.61-140.91-84.31l-50.53-21.51a517.72,517.72,0,0,1,47.35,39.13Z" transform="translate(3800.02 2367.04)"/><path d="M3347-1746.95a575.52,575.52,0,0,0-156.58,116.07,553.56,553.56,0,0,1,87.42-39.8A641.85,641.85,0,0,1,3347-1746.95Z" transform="translate(3800.02 2367.04)"/><path d="M3534.06-1804a591.14,591.14,0,0,0-96.29,20.74q-15.42,17.88-30,37.33l-38.45,51.26a590.16,590.16,0,0,1,85.23-8.68Z" transform="translate(3800.02 2367.04)"/><path d="M-2382.71,2617.1A530.4,530.4,0,0,0-2319.3,2677l137.59,14.28a507.63,507.63,0,0,1-45.87-53.48Z" transform="translate(3800.02 2367.04)"/><path d="M6148.85,1191.58q-15.77-20.32-33.8-39.37l-163.68-82q11.76,13.11,22.45,26.86Z" transform="translate(3800.02 2367.04)"/><path d="M-2463.22,2498.78a543,543,0,0,0,34.22,58.75l166.85,27.29a521.17,521.17,0,0,1-25.84-52.1Z" transform="translate(3800.02 2367.04)"/><path d="M6190.81,1254.68q-8.39-14.84-17.8-29.23l-182.77-106q6.17,8.89,11.9,18Z" transform="translate(3800.02 2367.04)"/><path d="M3709.21-1801.61a626.31,626.31,0,0,0-84.42-7.4l-90.4,108.6a608.14,608.14,0,0,1,75.06,12.58Z" transform="translate(3800.02 2367.04)"/><path d="M-2505.25,2385.32a556.26,556.26,0,0,0,17.18,55.94l181.37,40.64q-7.55-24.3-12.71-49.24Z" transform="translate(3800.02 2367.04)"/><path d="M3861.2-1757.74a623,623,0,0,0-73.22-26.34l-108.22,117.2a586,586,0,0,1,65.34,28.52Z" transform="translate(3800.02 2367.04)"/><path d="M6213.81,1300.43q-4.65-10.48-9.77-20.8L6010.39,1151q2.61,4.44,5.11,8.94Z" transform="translate(3800.02 2367.04)"/><path d="M3190.45-1630.88a556.81,556.81,0,0,0-148.12,122,532.67,532.67,0,0,1,83.94-43A629.19,629.19,0,0,1,3190.45-1630.88Z" transform="translate(3800.02 2367.04)"/><path d="M-1978,2799.44q-29.62-1.32-57.8-5c58.48,27.56,125,45.68,198.83,51.55a491.73,491.73,0,0,1-82.63-43.93Z" transform="translate(3800.02 2367.04)"/><path d="M5872.59,999.07A563.88,563.88,0,0,0,5743.71,929l-66-25.68a498,498,0,0,1,42.6,30.92Z" transform="translate(3800.02 2367.04)"/><path d="M3369.28-1694.72a569.88,569.88,0,0,0-91.41,24q-8.09,10.46-15.89,21.4l-50.29,70.65a568.12,568.12,0,0,1,79.56-12.07Z" transform="translate(3800.02 2367.04)"/><path d="M-2024.8,2707.61l-156.91-16.3a505,505,0,0,0,61.92,53.38l140.08,10.38A482.36,482.36,0,0,1-2024.8,2707.61Z" transform="translate(3800.02 2367.04)"/><path d="M5767.56,978.12l183.81,92.08q-14.86-16.53-31.43-32l-171.77-79.51Q5758.21,968.17,5767.56,978.12Z" transform="translate(3800.02 2367.04)"/><path d="M5813.53,1016.9l176.71,102.52q-7.86-11.36-16.42-22.36l-193-104.2,2,2.31Z" transform="translate(3800.02 2367.04)"/><path d="M-2262.15,2584.82a514.42,514.42,0,0,0,34.57,53l168.2,22.48a493,493,0,0,1-26.48-46.66Z" transform="translate(3800.02 2367.04)"/><path d="M3534.39-1700.41a602.67,602.67,0,0,0-79.88-3l-88.17,111.57a583.73,583.73,0,0,1,71.09,7.89Z" transform="translate(3800.02 2367.04)"/><path d="M5791.62,1005.74l20.31,13.48,39.8,24.74-38.2-27.06-24.27-14.08Z" transform="translate(3800.02 2367.04)"/><path d="M3679.76-1666.88a601,601,0,0,0-70.31-20.95l-104.91,119.66a565.24,565.24,0,0,1,62.91,22.92Z" transform="translate(3800.02 2367.04)"/><path d="M6010.39,1151q-4-6.85-8.25-13.6L5851.73,1044l38.42,27.21Z" transform="translate(3800.02 2367.04)"/><path d="M-2306.7,2481.9a525.26,525.26,0,0,0,18.71,50.82l182.24,35.29q-8.22-21.81-14.36-44.31Z" transform="translate(3800.02 2367.04)"/><path d="M3860.71-1071.52l-62,924.76C3784.19,70,3918.07,266.92,4131.11,342.09l983.77,347.06,43.72,12.31-894-347.69c-220.15-85.62-354.38-296.64-333.26-523.93l90.07-969.52c21.76-234.15-102.26-409.67-276.29-498.68L3625.81-1515.7C3772.54-1429.88,3874.41-1275.76,3860.71-1071.52Z" transform="translate(3800.02 2367.04)"/><path d="M5598,1764.74l-744,368c-255.77,126.48-367.41,417.17-253.62,660.37L4690,2984.66c230.57,492.81-427.25,953.42-852,596.6l-758.11-636.81c-96.59-81.13-222.6-124.88-354-122.89l-2881.26,43.62-24.34,6.54,2910.49,42.82c137.07,2,267.3,51.92,365.81,140.16l773.21,692.67c433.25,388.12,1132-75.19,905.08-600.1l-88.23-204.06c-112-259,12.44-560.92,282.68-685.8l786.15-363.29c312.25-144.29,397.7-487.36,260-734.15l-125.35-88.8-78.22-52L5793,1007.45C5976.82,1238,5916.36,1607.31,5598,1764.74Z" transform="translate(3800.02 2367.04)"/><path d="M-1852.69,1945.48,2037.2-112.81q21-11.11,40.84-23.86l22.25-56.52c-2.39,1.23-4.78,2.45-7.19,3.64L-2020.65,1851.11c-254.32,126.16-343.06,367.78-298.76,581.55l189.63,48.32C-2165,2285.33-2082.85,2067.27-1852.69,1945.48Z" transform="translate(3800.02 2367.04)"/><path d="M-1794.26,2848q-21.78-.33-42.76-2c58.55,24.36,124.84,39,198.14,41.07a471,471,0,0,1-80.38-38Z" transform="translate(3800.02 2367.04)"/><path d="M5677.68,903.34a534.75,534.75,0,0,0-91-47.09l36.69,26Z" transform="translate(3800.02 2367.04)"/><path d="M2990.93-1439.77a609.16,609.16,0,0,1,51.4-69.11,538.11,538.11,0,0,0-139.48,127.51,511.08,511.08,0,0,1,80.09-45.91Z" transform="translate(3800.02 2367.04)"/><polygon points="9380.6 3232.62 9341.63 3206.74 9298.69 3191.59 9338.14 3216.11 9380.6 3232.62"/><polygon points="9461.63 3276.33 9423.45 3249.28 9380.6 3232.62 9419.27 3258.31 9461.63 3276.33"/><path d="M5577.27,873.4l-39.16-24.34-22.77-8.85q11.51,7.9,22.34,16.34Z" transform="translate(3800.02 2367.04)"/><path d="M3211.69-1578.63a549.39,549.39,0,0,0-85.42,26.72c-1.1,1.6-2.2,3.19-3.28,4.8L3061.47-1456a544.37,544.37,0,0,1,73.7-15.13Z" transform="translate(3800.02 2367.04)"/><path d="M5748.17,958.69q-13.35-12.63-27.89-24.43l-58.67-25,38,26.92Z" transform="translate(3800.02 2367.04)"/><path d="M-1821,2766.84l-158.69-11.77a481.09,481.09,0,0,0,60.06,47l142.57,6.34A455.36,455.36,0,0,1-1821,2766.84Z" transform="translate(3800.02 2367.04)"/><polygon points="9457.78 3283.88 9419.27 3258.31 9377.3 3240.44 9416.28 3264.67 9457.78 3283.88"/><path d="M5575.06,878.56l-35.78-20.77q6.09,4.8,12,9.74Z" transform="translate(3800.02 2367.04)"/><polygon points="9537.58 3330.13 9499.64 3303.26 9457.78 3283.88 9496.21 3309.4 9537.58 3330.13"/><polygon points="9455.21 3288.86 9416.28 3264.67 9375.09 3245.6 9414.49 3268.46 9455.21 3288.86"/><path d="M5574,881.12l-18.51-10,2,1.73Z" transform="translate(3800.02 2367.04)"/><path d="M3272.12-1472.62l94.22-119.21a579.35,579.35,0,0,0-75.09,1.13l-86,114.61A564.1,564.1,0,0,1,3272.12-1472.62Z" transform="translate(3800.02 2367.04)"/><path d="M-2059.38,2660.31a485.71,485.71,0,0,0,34.58,47.3l169.56,17.6A462.63,462.63,0,0,1-1882,2684Z" transform="translate(3800.02 2367.04)"/><path d="M5780.86,992.86q-6.48-7.49-13.3-14.74l-30-15L5775.5,990Z" transform="translate(3800.02 2367.04)"/><polygon points="9534.67 3334.94 9496.21 3309.4 9455.21 3288.86 9494.16 3313.07 9534.67 3334.94"/><polygon points="9414.49 3268.46 9373.98 3248.16 9453.92 3291.34 9414.49 3268.46"/><path d="M5789.26,1002.82q-3.17-3.86-6.4-7.65L5775.5,990l-40.85-22.06,38.55,25.6Z" transform="translate(3800.02 2367.04)"/><polygon points="9494.16 3313.07 9453.92 3291.34 9533.22 3337.34 9494.16 3313.07"/><path d="M-2105.75,2568a494.27,494.27,0,0,0,19.89,45.64l183.16,29.95q-8.73-19.3-15.66-39.3Z" transform="translate(3800.02 2367.04)"/><path d="M3504.54-1568.17a581.49,581.49,0,0,0-67.11-15.77l-101.7,122.16a547.71,547.71,0,0,1,60.17,17.53Z" transform="translate(3800.02 2367.04)"/><path d="M5791.62,1005.74,5773.2,993.5l-40-23.21,59.8,37.16Z" transform="translate(3800.02 2367.04)"/><path d="M-2129.78,2481q3.89,21.55,9.67,42.72l190.36,42.65q-4.57-18-7.72-36.38Z" transform="translate(3800.02 2367.04)"/><path d="M3625.81-1515.7a542.75,542.75,0,0,0-58.36-29.55L3452.26-1420.5a502.24,502.24,0,0,1,52.15,29.63Z" transform="translate(3800.02 2367.04)"/><path d="M2866-1327.59a586.52,586.52,0,0,1,36.85-53.78c-49,34.3-93.41,78.29-130.63,132.56a491.69,491.69,0,0,1,75.1-48Z" transform="translate(3800.02 2367.04)"/><path d="M-1610.83,2887.22q-14.19.21-28.05-.19c58.47,21.18,124.4,32.36,197,30.68a451.49,451.49,0,0,1-77.1-31.88Z" transform="translate(3800.02 2367.04)"/><path d="M5456.05,809.51l-32.54-18.88q-21-8.67-43.44-15.82l-7.21-2.29,40.82,22.05Z" transform="translate(3800.02 2367.04)"/><polygon points="9171.5 3146.72 9130.2 3126.03 9087.57 3112.51 9129.33 3131.84 9171.5 3146.72"/><path d="M5496,832.67l19.37,7.54q-17.28-11.88-36.06-22.5l-23.23-8.2Z" transform="translate(3800.02 2367.04)"/><polygon points="9254.09 3183.42 9213.71 3161.61 9171.5 3146.72 9212.34 3167.18 9254.09 3183.42"/><path d="M5328.87,767.68l41.75,16.24-41.31-19.12-26.93-9.5q4,2.21,7.89,4.47Z" transform="translate(3800.02 2367.04)"/><path d="M3061.47-1456a526.91,526.91,0,0,0-78.53,28.74l-64.15,100.17a522.72,522.72,0,0,1,67.65-17.81Z" transform="translate(3800.02 2367.04)"/><path d="M-1777.08,2808.37a457.49,457.49,0,0,0,57.82,40.7l145.08,2.14a431.17,431.17,0,0,1-42.4-35.71Z" transform="translate(3800.02 2367.04)"/><polygon points="9294.19 3205.07 9335.63 3222.71 9296 3199.72 9254.09 3183.42 9294.19 3205.07"/><polygon points="9252.9 3187.5 9212.34 3167.18 9170.65 3150.97 9211.66 3169.95 9252.9 3187.5"/><path d="M5537.68,856.55l-2.08-.89,3.68,2.13Z" transform="translate(3800.02 2367.04)"/><polygon points="9293.28 3207.73 9334.11 3226.63 9294.19 3205.07 9252.9 3187.5 9293.28 3207.73"/><path d="M-1855.24,2725.21a457,457,0,0,0,34.22,41.63l171,12.67a429.6,429.6,0,0,1-26.65-35.76Z" transform="translate(3800.02 2367.04)"/><path d="M3113.68-1354l91.58-122.08a559.12,559.12,0,0,0-70.09,4.94l-83.86,117.81A541.09,541.09,0,0,1,3113.68-1354Z" transform="translate(3800.02 2367.04)"/><path d="M5551.24,867.53l-17.15-7.94,21.36,11.53C5554.05,869.92,5552.66,868.72,5551.24,867.53Z" transform="translate(3800.02 2367.04)"/><path d="M-1902.7,2643.6q9.35,20.67,20.7,40.41l184.16,24.6q-9-16.76-16.56-34.21Z" transform="translate(3800.02 2367.04)"/><path d="M3335.73-1461.78a559.42,559.42,0,0,0-63.61-10.84l-98.6,124.77a528.68,528.68,0,0,1,57.08,12.36Z" transform="translate(3800.02 2367.04)"/><path d="M3452.26-1420.5a526.73,526.73,0,0,0-56.36-23.75l-111.28,126.92a490.88,490.88,0,0,1,50.55,23.64Z" transform="translate(3800.02 2367.04)"/><path d="M-1929.75,2566.35q4.88,19.21,11.39,38l191.27,37q-5.29-15.66-9.4-31.68Z" transform="translate(3800.02 2367.04)"/><path d="M5070.65,676.69l-12.87-4.08c2.07.73,4.14,1.45,6.18,2.2Z" transform="translate(3800.02 2367.04)"/><path d="M-1510.6,2106.65,1939.12,45.57a515.81,515.81,0,0,0,96-73.83l4.71-11.35,16.59-42.16a540.23,540.23,0,0,1-70.58,47.4l-3668.4,2065.05c-210.5,118.5-285.72,318.9-254.92,499.29l194.4,49.53C-1773.6,2411.47-1705.82,2223.29-1510.6,2106.65Z" transform="translate(3800.02 2367.04)"/><path d="M3556.59-915.08,3543-82.08c-3.18,195.29,128,364.53,325.62,420.2l1111.21,313,32.84,8.09q8.76,2.16,17.28,4.58L3999,336.9c-205.55-65.17-338.4-248.14-329.84-454.25l36.49-879.21c7.4-178.22-77.23-313.58-201.28-394.31l-122.6,126C3487.6-1190.2,3559.13-1071.1,3556.59-915.08Z" transform="translate(3800.02 2367.04)"/><path d="M5271.53,1533.43l-661,371.14C4383.26,2032.15,4295,2299.08,4410,2511l90.58,166.93c233,429.37-345.16,878.87-748.86,582.21l-720.47-529.45c-91.79-67.45-208.67-99.75-328.31-90.71l-2806,211.85-4.48.54-23.4,6.29L2716.59,2730c125.55-5.67,247.11,32.21,341.45,106.41l740.51,582.37c414.92,326.31,1032.51-129.68,799.93-590.62l-90.42-179.2c-114.78-227.48-15.2-506.5,226.22-633.89l702.3-370.56c324-171,355.28-567.09,120.86-771.62l-64.19-32.16-81.62-37.79-82.76-35.22-15-5.84C5598.22,930.16,5598.92,1349.62,5271.53,1533.43Z" transform="translate(3800.02 2367.04)"/><path d="M-1428.11,2917.24q-6.93.32-13.78.47c58.22,18.05,123.64,25.82,195.34,20.41a430.48,430.48,0,0,1-72.61-25.8Z" transform="translate(3800.02 2367.04)"/><path d="M2748.35-1210.86q11.36-19.76,23.87-38c-46.43,36-87.87,81.54-121.57,137.13a472.31,472.31,0,0,1,68.82-49Z" transform="translate(3800.02 2367.04)"/><path d="M5244.86,731.93l-42.5-18.08c-1.91-.56-3.8-1.13-5.72-1.67l-38-10.72L5202,718.34Z" transform="translate(3800.02 2367.04)"/><polygon points="8914.91 3056.2 8870.67 3043.74 8958.79 3071.68 8914.91 3056.2"/><path d="M5287.1,749.91l15.28,5.39q-12.71-7-26.11-13.41l-31.41-10Z" transform="translate(3800.02 2367.04)"/><polygon points="9002 3085.38 8958.79 3071.68 9044.72 3101.99 9002 3085.38"/><path d="M-1574.18,2851.21a435.79,435.79,0,0,0,55.19,34.62l147.67-2.24a406.29,406.29,0,0,1-40.45-30Z" transform="translate(3800.02 2367.04)"/><path d="M2918.79-1327.11a505.11,505.11,0,0,0-71.47,30.3l-63.58,104.75a499.61,499.61,0,0,1,61.43-20.1Z" transform="translate(3800.02 2367.04)"/><path d="M5313.84,761.84c-1.18-.7-2.38-1.38-3.57-2.07l-23.17-9.86-42.4-15Z" transform="translate(3800.02 2367.04)"/><path d="M-1650,2779.51a428.28,428.28,0,0,0,33.47,36l172.48,7.67q-13.86-14.57-26.11-30.33Z" transform="translate(3800.02 2367.04)"/><path d="M3051.31-1353.34a536.25,536.25,0,0,0-64.87,8.42l-81.83,121.18a519.46,519.46,0,0,1,57.64-4.5Z" transform="translate(3800.02 2367.04)"/><path d="M-1697.84,2708.61q9.72,18,21.14,35.14l185.35,19.25q-9.14-14.2-17-29.07Z" transform="translate(3800.02 2367.04)"/><path d="M3173.52-1347.85a537.19,537.19,0,0,0-59.84-6.16L3018-1226.48a507.88,507.88,0,0,1,53.69,7.46Z" transform="translate(3800.02 2367.04)"/><path d="M3284.62-1317.33a512,512,0,0,0-54-18.16L3123-1206.23a474.74,474.74,0,0,1,48.56,17.86Z" transform="translate(3800.02 2367.04)"/><path d="M-1727.09,2641.34q5.67,16.77,12.69,33.06l192.48,31.47q-5.79-13.23-10.61-26.85Z" transform="translate(3800.02 2367.04)"/><path d="M-1743.07,2579.5q2.76,15.2,6.58,30.16l195.85,43.88q-3.36-11.89-6-24Z" transform="translate(3800.02 2367.04)"/><path d="M3381.81-1264.82a461.17,461.17,0,0,0-46.64-28.87l-118.2,128a420.9,420.9,0,0,1,41.83,27.34Z" transform="translate(3800.02 2367.04)"/><path d="M-1246.48,2938.12h-.07c54.26,14,114.62,18.78,180.24,11.82l13.5-1.44a412.76,412.76,0,0,1-67.25-19.92Z" transform="translate(3800.02 2367.04)"/><path d="M2638.13-1089.91q6.07-11.13,12.52-21.77c-43.84,37.56-82.24,84.49-112.35,141.25a451.74,451.74,0,0,1,61.15-48.45Z" transform="translate(3800.02 2367.04)"/><path d="M5029.93,663.78l27.85,8.83Q5044.18,667.86,5029.93,663.78Z" transform="translate(3800.02 2367.04)"/><path d="M2783.74-1192.06a483.7,483.7,0,0,0-64.27,31.42l-63.08,109.69a477.15,477.15,0,0,1,55-22Z" transform="translate(3800.02 2367.04)"/><path d="M-1371.32,2883.59a413.5,413.5,0,0,0,52.16,28.73l150.41-6.8a382.19,382.19,0,0,1-38-24.42Z" transform="translate(3800.02 2367.04)"/><path d="M2904.61-1223.74a512.46,512.46,0,0,0-59.44,11.58l-80,124.85a497.22,497.22,0,0,1,52.65-8Z" transform="translate(3800.02 2367.04)"/><path d="M-1262.65,2831.23l-181.45-8.06a405.57,405.57,0,0,0,32.33,30.43l174.27,2.56Q-1250.71,2844.24-1262.65,2831.23Z" transform="translate(3800.02 2367.04)"/><path d="M3018-1226.48a520.22,520.22,0,0,0-55.76-1.76l-93,130.59a490.88,490.88,0,0,1,50,2.81Z" transform="translate(3800.02 2367.04)"/><path d="M-1491.35,2763q9.86,15.35,21.14,29.84l186.89,13.86q-9-11.62-17-23.86Z" transform="translate(3800.02 2367.04)"/><path d="M3123-1206.23a497.37,497.37,0,0,0-51.3-12.79l-104.22,131.87a462,462,0,0,1,46.15,12.3Z" transform="translate(3800.02 2367.04)"/><path d="M-1521.92,2705.87q6.23,14.28,13.55,28.06l194.18,26q-6-10.77-11.27-21.88Z" transform="translate(3800.02 2367.04)"/><path d="M3217-1165.67a448.16,448.16,0,0,0-45.41-22.7l-114.19,130.24a412.55,412.55,0,0,1,40.9,21Z" transform="translate(3800.02 2367.04)"/><path d="M-1540.64,2653.54q3.63,12.87,8.11,25.48l198,38.35c-2.57-6.35-4.94-12.78-7.16-19.26Z" transform="translate(3800.02 2367.04)"/><path d="M-1162.83,2230.83,1859.66,209.18c53.16-35.56,97.91-80.7,131.38-132.16l8.58-19.61,13.46-32.47a491.08,491.08,0,0,1-116,101.88L-1337.23,2173.37c-184.28,116.61-243.92,297.8-209.41,456.18l199.34,50.78C-1390.76,2529.38-1340.62,2349.74-1162.83,2230.83Z" transform="translate(3800.02 2367.04)"/><path d="M3277.06-733.64l24.31,739c5.7,173.25,131.49,315.83,312.3,354L4828.52,615.85c362.69,76.56,426.21,520,103.65,723.61L4352,1705.75c-199.45,125.91-267.38,367.47-154.31,548.77l89.07,142.81c229.12,367.37-272.86,798.42-650.19,558.32l-673.41-428.5c-85.79-54.59-192.69-76.61-300.25-61.84L-27.68,2834.69l-8.27,2.52c-6.51,2-13,3.76-19.35,5.39L2685,2551.67c113.63-12.06,225.62,14.94,314.55,75.85l698.09,478.13c391.15,267.91,930.75-173.26,698.91-571.42l-90.12-154.79C4192,2183,4269.71,1928.52,4483,1801.43l620.31-369.7c328.68-195.89,293.66-635.11-39.3-756.92l-84.15-23.7L3740.06,345.66C3550.66,299,3421.87,143.21,3420.3-41.1l-6.67-786.24c-1.17-137.62-63.13-242.9-154.83-311L3136-1012C3217.5-950.42,3273-856.59,3277.06-733.64Z" transform="translate(3800.02 2367.04)"/><path d="M-1052.81,2948.5c50.11,10.37,105.31,12.47,164.85,4.3l27.33-3.76A394.3,394.3,0,0,1-922,2934.61Z" transform="translate(3800.02 2367.04)"/><path d="M2487.29-871.58l48.21-93.49c.92-1.8,1.86-3.58,2.8-5.36-38.55,36.43-71.94,80.92-97.73,133.76L2435-825.16A431.15,431.15,0,0,1,2487.29-871.58Z" transform="translate(3800.02 2367.04)"/><path d="M2656.39-1050.95a462.88,462.88,0,0,0-56.94,32.07l-62.69,115.1a454,454,0,0,1,48.48-23.45Z" transform="translate(3800.02 2367.04)"/><path d="M-1168.75,2905.52a392.13,392.13,0,0,0,48.69,23.06L-966.65,2917a361.81,361.81,0,0,1-35.16-19Z" transform="translate(3800.02 2367.04)"/><path d="M-1237.5,2856.16a378.17,378.17,0,0,0,30.71,24.94l176.38-2.67q-12.28-9.32-23.58-19.57Z" transform="translate(3800.02 2367.04)"/><path d="M2765.22-1087.31a493.31,493.31,0,0,0-53.79,14.36L2633.17-944a474.48,474.48,0,0,1,47.42-11.14Z" transform="translate(3800.02 2367.04)"/><path d="M2773.28-962.8l96-134.85a494.88,494.88,0,0,0-51.42,2.35l-90.5,134Q2750.37-963.15,2773.28-962.8Z" transform="translate(3800.02 2367.04)"/><path d="M-1283.32,2806.7q9.78,12.66,20.67,24.53l189.06,8.41q-8.52-9-16.34-18.61Z" transform="translate(3800.02 2367.04)"/><path d="M2967.48-1087.15a480.42,480.42,0,0,0-48.23-7.69L2818.06-959.95q21.95,2.48,43.35,7Z" transform="translate(3800.02 2367.04)"/><path d="M-1314.19,2759.88q6.53,11.7,13.91,23l196.76,20.43q-5.89-8.22-11.27-16.75Z" transform="translate(3800.02 2367.04)"/><path d="M3057.37-1058.13a438.27,438.27,0,0,0-43.74-16.72L2903-941.94a407.69,407.69,0,0,1,39.46,14.88Z" transform="translate(3800.02 2367.04)"/><path d="M-1334.53,2717.37q4.21,10.44,9.07,20.63l201.4,32.94q-4-7.05-7.58-14.28Z" transform="translate(3800.02 2367.04)"/><path d="M-1347.3,2680.33q2.58,9,5.61,17.78l203.92,45.69c-1.69-3.75-3.33-7.52-4.88-11.33Z" transform="translate(3800.02 2367.04)"/><path d="M3048.82-922.42,3136-1012a390.75,390.75,0,0,0-37.68-25.1L2979.45-908.44a360.17,360.17,0,0,1,32.73,21.19Q3031.07-904.17,3048.82-922.42Z" transform="translate(3800.02 2367.04)"/><path d="M-860.63,2949c45.68,7,95.51,6.79,148.83-2.22l41.69-7.05a379.12,379.12,0,0,1-54.91-9.34Z" transform="translate(3800.02 2367.04)"/><path d="M2382.88-718.46,2435-825.16A439,439,0,0,0,2353.46-705l-13.87,30A409.3,409.3,0,0,1,2382.88-718.46Z" transform="translate(3800.02 2367.04)"/><path d="M2536.76-903.78a440.74,440.74,0,0,0-49.47,32.2l-62.56,121.33a429.49,429.49,0,0,1,41.74-24.46Z" transform="translate(3800.02 2367.04)"/><path d="M-966.65,2917A373.36,373.36,0,0,0-922,2934.61L-765.07,2918a343,343,0,0,1-31.64-13.8Z" transform="translate(3800.02 2367.04)"/><path d="M-1030.41,2878.43q13.7,10.4,28.6,19.55l179.34-8.1q-11-6.77-21.33-14.28Z" transform="translate(3800.02 2367.04)"/><path d="M2633.17-944a465.49,465.49,0,0,0-47.93,16.78l-76.92,133.75q20.7-8,42-14Z" transform="translate(3800.02 2367.04)"/><path d="M-1073.59,2839.64q9.39,9.95,19.6,19.22l192.37,2.83q-7.68-6.43-14.87-13.29Z" transform="translate(3800.02 2367.04)"/><path d="M2727.37-961.29q-23.43,1.9-46.78,6.14L2592.12-817q20.72-3.72,41.54-5.53Z" transform="translate(3800.02 2367.04)"/><path d="M2818.06-959.95c-14.79-1.66-29.75-2.61-44.78-2.85l-98.65,138.58q20.19.09,40.11,2Z" transform="translate(3800.02 2367.04)"/><path d="M-1103.52,2803.27q6.49,9.08,13.59,17.76l201,14.91q-5.3-5.62-10.29-11.46Z" transform="translate(3800.02 2367.04)"/><path d="M-1124.06,2770.94q4.43,7.91,9.27,15.58l207.14,27.68c-2.33-3-4.62-5.95-6.84-9Z" transform="translate(3800.02 2367.04)"/><path d="M2903-941.94q-20.39-6.51-41.59-11L2753.7-816.66q19.08,3.63,37.51,9Z" transform="translate(3800.02 2367.04)"/><path d="M2942.5-868.42l36.95-40a384,384,0,0,0-37-18.62L2840.24-810.47c-4.46,5.09-9,10.09-13.61,15.05q12.21,4.9,24,10.64A716,716,0,0,0,2942.5-868.42Z" transform="translate(3800.02 2367.04)"/><path d="M-1137.77,2743.8q2.94,6.49,6.13,12.86l211.82,41q-2-2.94-4-5.94Z" transform="translate(3800.02 2367.04)"/><path d="M-812.44,2317.94,1799.05,376.43c59.11-43.95,105.18-100.94,133-164.54l38.77-88.64C1939.73,189.43,1890,248,1827,292.45L-987.77,2279c-176.27,124.41-214.15,308.82-154.88,453.46l216.12,55.07C-1013.14,2650.92-993.73,2452.71-812.44,2317.94Z" transform="translate(3800.02 2367.04)"/><path d="M3023.92-529.47l51.68,643.71c12.12,150.91,130,268,292.69,290.78L4461.36,557.86c326.34,45.63,401,429,121.76,625.62l-502.2,353.68c-172.64,121.58-223.36,336.42-115.23,488.07l85.18,119.47c219.1,307.3-210.75,712.93-556.77,525.4l-617.54-334.7c-78.67-42.64-174.82-55.61-270.08-36.43L24.37,2818.85l-26.38,8L2636.67,2381c101.43-17.14,203,.2,285.41,48.69l646.53,380.67c362.27,213.3,827.65-205.89,602.78-543l-87.41-131c-111-166.34-52.05-394.69,133.86-518.77l540.82-360.93c300.66-200.66,230.78-614-114-674.61l-1155-202.85c-171.89-30.2-294-159.88-303.25-322l-39.33-691.49c-6.41-112.71-58.94-197.71-134.9-253a744.12,744.12,0,0,1-154,106.3C2948.25-734.15,3014.27-649.74,3023.92-529.47Z" transform="translate(3800.02 2367.04)"/><path d="M2339.59-675a411.78,411.78,0,0,0-39.93,55.36l16.24-4.09Z" transform="translate(3800.02 2367.04)"/><path d="M-670.11,2939.77c40.9,3.94,85.06,1.79,131.94-7.65l56.83-11.45a365.92,365.92,0,0,1-47.71-4.73Z" transform="translate(3800.02 2367.04)"/><path d="M2285.85-558.69l7.67-16.59L2274-569.79l-21.6,49.37.56-.17A388.81,388.81,0,0,1,2285.85-558.69Z" transform="translate(3800.02 2367.04)"/><path d="M1985.27,92l7-16.94c-.41.65-.83,1.3-1.25,1.94l-20.22,46.23c.36-.77.74-1.54,1.09-2.32Z" transform="translate(3800.02 2367.04)"/><path d="M2319.93-589.48l19.63-40.22-23.66,6-22.38,48.46,14.21-4Q2313.75-584.52,2319.93-589.48Z" transform="translate(3800.02 2367.04)"/><path d="M-765.07,2918A357.64,357.64,0,0,0-725,2930.43l161.33-22.15q-14-3.87-27.2-8.82Z" transform="translate(3800.02 2367.04)"/><path d="M2424.73-750.25a418,418,0,0,0-41.85,31.79l-43.32,88.76,26.45-6.66Z" transform="translate(3800.02 2367.04)"/><path d="M2395.11-643.69l-29.1,7.33-11.24,21.81q17.33-11.13,35.58-20.4Z" transform="translate(3800.02 2367.04)"/><path d="M2508.32-793.48a440.3,440.3,0,0,0-41.85,18.77l-71.36,131,31.65-8Z" transform="translate(3800.02 2367.04)"/><path d="M-822.47,2889.88q12.44,7.63,25.76,14.28l183.85-13.88q-9.23-4.26-18-9.06Z" transform="translate(3800.02 2367.04)"/><path d="M2426.76-651.66l-.18.32,1.84-.74Z" transform="translate(3800.02 2367.04)"/><path d="M2592.12-817q-21.06,3.78-41.84,9.56L2463.23-664q18.29-5.43,36.85-9.23Z" transform="translate(3800.02 2367.04)"/><path d="M-861.62,2861.69q8.61,7.23,17.82,13.91l198-3q-6.18-3.82-12.11-7.91Z" transform="translate(3800.02 2367.04)"/><path d="M2537-679.44l-1.87.47,1.69-.21Z" transform="translate(3800.02 2367.04)"/><path d="M2674.63-824.22q-20.41-.09-41,1.69L2537-679.44,2579.1-690Z" transform="translate(3800.02 2367.04)"/><path d="M-888.91,2835.94q6,6.38,12.42,12.46l208.84,9.28q-3.86-2.89-7.6-5.9Z" transform="translate(3800.02 2367.04)"/><path d="M-700.56,2845.11l24.92,6.35c-1.77-1.42-3.51-2.85-5.24-4.31Z" transform="translate(3800.02 2367.04)"/><path d="M2609.17-681.49l14.9-19.87-45,11.33-5.8,8.14C2585.32-682.27,2597.3-682.13,2609.17-681.49Z" transform="translate(3800.02 2367.04)"/><path d="M2753.7-816.66q-19.22-3.66-39-5.56l-90.67,120.86,48.08-12.11Z" transform="translate(3800.02 2367.04)"/><path d="M-907.65,2814.2q4.11,5.22,8.45,10.28l198.64,20.63-26.77-6.82Z" transform="translate(3800.02 2367.04)"/><path d="M-699.41,2842l16.93,3.79c-.7-.59-1.39-1.2-2.08-1.81Z" transform="translate(3800.02 2367.04)"/><path d="M2688.57-691.59q17.88-17,34.5-35.25-13.31,3.89-26.78,7.29l-24.14,6.08-23.69,30c-1.44,1.82-2.9,3.62-4.36,5.42q3.26.47,6.49,1Q2669.81-683.83,2688.57-691.59Z" transform="translate(3800.02 2367.04)"/><polygon points="3045.63 5198.44 3072.69 5205.34 3100.61 5209.06 3073.62 5203.02 3045.63 5198.44"/><path d="M-698.84,2840.48l13.16,2.55-.55-.49Z" transform="translate(3800.02 2367.04)"/><path d="M2826.63-795.42q-17.3-7-35.42-12.24l-49,58.89q-9.32,11.19-19.12,21.93,25-7.27,49.27-16.23A694.74,694.74,0,0,0,2826.63-795.42Z" transform="translate(3800.02 2367.04)"/><path d="M-919.82,2797.68q2.63,3.81,5.33,7.53l160.1,26.19-27.39-7Z" transform="translate(3800.02 2367.04)"/><path d="M2674.72-672.45a698.72,698.72,0,0,0,59.4-39.88q-22.38,11.15-45.55,20.74-9.63,9.14-19.6,17.89C2670.89-673.3,2672.81-672.89,2674.72-672.45Z" transform="translate(3800.02 2367.04)"/><polygon points="3073.62 5203.02 3101.19 5207.53 3046.29 5196.89 3073.62 5203.02"/><path d="M2772.34-743.07q-18.56,16-38.22,30.74a723.23,723.23,0,0,0,85-49.78Q2796.1-751.82,2772.34-743.07Z" transform="translate(3800.02 2367.04)"/><polygon points="3018.24 5191.46 3046.29 5196.89 2990.5 5184.39 3018.24 5191.46"/><path d="M2850.59-784.78q-15.42,11.76-31.45,22.67,19.8-8.85,39-18.84C2855.66-782.25,2853.13-783.53,2850.59-784.78Z" transform="translate(3800.02 2367.04)"/><path d="M-923.81,2791.74l114.28,25.61-117-29.81Q-925.19,2789.66-923.81,2791.74Z" transform="translate(3800.02 2367.04)"/><path d="M-481.34,2920.67A409.79,409.79,0,0,0-416,2917.6l-22.09-5.63Z" transform="translate(3800.02 2367.04)"/><path d="M-411.3,2906.57l26.68,6q8.53-1.68,17.2-3.7l9.76-2.29-27.3-5.29Z" transform="translate(3800.02 2367.04)"/><polygon points="3440.98 5263.1 3468.18 5267.54 3493.62 5261.58 3466.51 5257.96 3440.98 5263.1"/><path d="M2230.41-470.24l-12,4.07q-8.28,15.78-15.34,32.73l-7.94,19.15L2208-419Z" transform="translate(3800.02 2367.04)"/><path d="M2173.46-361.93l-3,7.13c1.68-2.69,3.37-5.36,5.11-8Z" transform="translate(3800.02 2367.04)"/><path d="M2019.93,11l15.59-39.61-.39.38-22.05,53.2,1.58-1.92Z" transform="translate(3800.02 2367.04)"/><polygon points="3334.99 5272.16 3361.9 5279.02 3388.72 5273.62 3361.92 5267.61 3334.99 5272.16"/><path d="M2247.71-476.12l23.11-50-17.9,5.56-1.14,1.51-21.37,48.84Z" transform="translate(3800.02 2367.04)"/><polygon points="3388.37 5263.14 3415.07 5268.31 3440.98 5263.1 3414.39 5258.75 3388.37 5263.14"/><path d="M2224.1-425,2208-419l-12.84,29.35a369.42,369.42,0,0,1,26.22-29.46Z" transform="translate(3800.02 2367.04)"/><path d="M-333.51,2890.91l.15,0-.86-.06Z" transform="translate(3800.02 2367.04)"/><path d="M1995.23,70.45l8.7-18.82,11.74-29.84-1,1.23-15,34.39-7.33,17.67Q1993.78,72.77,1995.23,70.45Z" transform="translate(3800.02 2367.04)"/><path d="M-563.69,2908.28a340.51,340.51,0,0,0,34.64,7.66l64-10.82-26.49-6.75Z" transform="translate(3800.02 2367.04)"/><polygon points="3335.54 5261.7 3361.92 5267.61 3388.37 5263.14 3362.11 5258.06 3335.54 5261.7"/><path d="M2292.27-532.8l23.83-48.82-8.37,2.35q-11.27,9.81-21.88,20.58l-15,32.54Z" transform="translate(3800.02 2367.04)"/><path d="M-386,2883.89l-25.74,3.53,26.16,4.28,24.4-4.12c-3-.49-6-1-8.95-1.57Z" transform="translate(3800.02 2367.04)"/><path d="M2229.34-426.93q9.66-9.19,19.87-17.63L2268-483l-20.26,6.89L2224.1-425Z" transform="translate(3800.02 2367.04)"/><polygon points="3282.31 5258.74 3308.51 5265.41 3335.54 5261.7 3309.45 5255.86 3282.31 5258.74"/><path d="M2341.46-588.75l13.31-25.8a404,404,0,0,0-34.84,25.07l-3.83,7.86Z" transform="translate(3800.02 2367.04)"/><polygon points="6091 1876.22 6116.51 1826.74 6092.29 1834.25 6067.99 1884.04 6091 1876.22"/><polygon points="3336.13 5253.03 3362.11 5258.06 3388.24 5254.47 3362.37 5250.24 3336.13 5253.03"/><path d="M-398.9,2879.08l-12.9,1.37,25.75,3.44,3.58-.49Q-390.83,2881.45-398.9,2879.08Z" transform="translate(3800.02 2367.04)"/><path d="M-612.86,2890.28c7.14,3.3,14.46,6.38,22,9.18l73.17-7.76-26-6.64Z" transform="translate(3800.02 2367.04)"/><polygon points="6143.36 1818.41 6169.49 1770.43 6141.49 1778.3 6116.51 1826.74 6143.36 1818.41"/><polygon points="3283.54 5250.05 3309.45 5255.86 3336.13 5253.03 3310.33 5248.03 3283.54 5250.05"/><polygon points="3336.68 5246.04 3362.37 5250.24 3388.22 5247.49 3362.65 5244.08 3336.68 5246.04"/><path d="M2308.72-485.06l7.88-14.47L2291-490.82l-12.58,24.39Q2293.18-476.45,2308.72-485.06Z" transform="translate(3800.02 2367.04)"/><path d="M-411.75,2875.1l.39,0-.17-.06Z" transform="translate(3800.02 2367.04)"/><polygon points="3230.34 5245.5 3256.28 5252.11 3283.54 5250.05 3257.7 5244.26 3230.34 5245.5"/><path d="M2426.58-651.34q-18.42,7.32-36.23,16.39l-20.88,38.34L2400-605.2Z" transform="translate(3800.02 2367.04)"/><polygon points="6144.81 1857.93 6172.78 1809.29 6143.36 1818.41 6116.62 1867.51 6144.81 1857.93"/><polygon points="3284.61 5243.05 3310.33 5248.03 3336.68 5246.04 3311.08 5241.85 3284.61 5243.05"/><polygon points="3337.16 5240.67 3362.65 5244.08 3388.27 5242.14 3362.9 5239.51 3337.16 5240.67"/><path d="M2463.23-664q-17.58,5.22-34.81,12l32.53-8.19Z" transform="translate(3800.02 2367.04)"/><path d="M-645.76,2872.6c4.84,3,9.81,5.87,14.86,8.62l61.21-2.77-25.93-6.6Z" transform="translate(3800.02 2367.04)"/><polygon points="6233.18 1752.55 6200.06 1761.85 6172.78 1809.29 6204.77 1799.37 6233.18 1752.55"/><polygon points="3231.87 5238.48 3257.7 5244.26 3284.61 5243.05 3258.88 5238.07 3231.87 5238.48"/><polygon points="3285.47 5237.66 3311.08 5241.85 3337.16 5240.67 3311.67 5237.27 3285.47 5237.66"/><path d="M2371.75-513.32l3.79-6.24-30.76,10.45-4.86,8.46Q2355.61-507.67,2371.75-513.32Z" transform="translate(3800.02 2367.04)"/><path d="M-436.94,2869.44l-25.55.39,25.37,2.63,16.25-.73c-1.16-.44-2.31-.9-3.46-1.35Z" transform="translate(3800.02 2367.04)"/><polygon points="6297.7 1697.52 6260.97 1706.77 6233.18 1752.55 6268.88 1742.52 6297.7 1697.52"/><polygon points="3178.4 5232.27 3204.4 5238.89 3231.87 5238.48 3205.97 5232.67 3178.4 5232.27"/><polygon points="3233.09 5233.07 3258.88 5238.07 3285.47 5237.66 3259.79 5233.46 3233.09 5233.07"/><polygon points="6239.35 1788.64 6204.77 1799.37 6175.56 1847.48 6208.93 1836.14 6239.35 1788.64"/><polygon points="3286.11 5233.85 3311.67 5237.27 3337.53 5236.88 3312.08 5234.23 3286.11 5233.85"/><path d="M-429.55,2868.26l-7.29-.32-25.43-.37,25.33,1.87,9.85-.15C-427.91,2869-428.73,2868.61-429.55,2868.26Z" transform="translate(3800.02 2367.04)"/><path d="M-667.65,2857.68c3.2,2.4,6.47,4.73,9.78,7l36.24.53-26.12-6.66Z" transform="translate(3800.02 2367.04)"/><path d="M2500.08-673.27l-2.4,3.75,37.48-9.45C2523.45-677.55,2511.73-675.66,2500.08-673.27Z" transform="translate(3800.02 2367.04)"/><polygon points="6307.24 1731.75 6268.88 1742.52 6239.35 1788.64 6276.63 1777.08 6307.24 1731.75"/><polygon points="3179.94 5226.84 3205.97 5232.67 3233.09 5233.07 3207.16 5228.05 3179.94 5226.84"/><path d="M2445.05-543.24c-2.07.72-4.14,1.46-6.22,2.17L2408.9-530.9l-4.93,7.71q16.09-4.23,32.37-7.15Z" transform="translate(3800.02 2367.04)"/><polygon points="3233.97 5229.24 3259.79 5233.46 3286.11 5233.85 3260.4 5230.42 3233.97 5229.24"/><polygon points="3286.49 5231.58 3312.08 5234.23 3337.76 5234.61 3312.29 5232.72 3286.49 5231.58"/><path d="M2573.3-681.89q-18.18.58-36.45,2.71l-29.64,43.89,41.15-11.56Z" transform="translate(3800.02 2367.04)"/><polygon points="3125.98 5218.91 3152.27 5225.61 3179.94 5226.84 3153.74 5220.97 3125.98 5218.91"/><path d="M2516.72-602.4,2476.6-590l-31.55,46.72q20.68-7.26,40.77-15.76Z" transform="translate(3800.02 2367.04)"/><polygon points="3181.05 5222.99 3207.16 5228.05 3233.97 5229.24 3207.97 5224.99 3181.05 5222.99"/><polygon points="3234.51 5226.96 3260.4 5230.42 3286.49 5231.58 3260.71 5228.9 3234.51 5226.96"/><path d="M-675.25,2851.78l1.2.09-1.59-.41Z" transform="translate(3800.02 2367.04)"/><path d="M2561.23-617.59l31.24-41.64-44.11,12.38-31.64,44.45,4-1.23Q2541.21-610,2561.23-617.59Z" transform="translate(3800.02 2367.04)"/><polygon points="3127.31 5215.05 3153.74 5220.97 3181.05 5222.99 3154.72 5217.89 3127.31 5215.05"/><polygon points="3181.73 5220.7 3207.97 5224.99 3234.51 5226.96 3208.37 5223.46 3181.73 5220.7"/><path d="M2498.86-545.81q16.79-16.58,32.28-34.37-22.21,11.38-45.32,21.18l-11.36,16q-3,4.13-6,8.21,7.65-.76,15.27-1.22Q2491.39-540.83,2498.86-545.81Z" transform="translate(3800.02 2367.04)"/><path d="M2640.49-673.63c1.21-1.47,2.41-3,3.61-4.45q-17.28-2.45-34.93-3.41l-16.7,22.26,14.05-3.95Q2623.67-668,2640.49-673.63Z" transform="translate(3800.02 2367.04)"/><path d="M-680.88,2847.15l8.16.85-9.76-2.19C-681.95,2846.27-681.41,2846.71-680.88,2847.15Z" transform="translate(3800.02 2367.04)"/><polygon points="3128.11 5212.74 3154.72 5217.89 3181.73 5220.7 3155.21 5216.36 3128.11 5212.74"/><path d="M2608.16-637.27q-23.05,10.66-46.93,19.68l-2.05,2.74q-13.39,17.85-28,34.67,21.84-11.19,42.77-23.89Q2591.64-620,2608.16-637.27Z" transform="translate(3800.02 2367.04)"/><path d="M-684.56,2844l12.64,1.69-13.76-2.66Z" transform="translate(3800.02 2367.04)"/><path d="M2669-673.7q-9.1-1.92-18.38-3.4-5,1.77-10.1,3.47-15.48,18.81-32.33,36.36,22.53-10.41,44.21-22.35Q2660.79-666.54,2669-673.7Z" transform="translate(3800.02 2367.04)"/><path d="M2798.8-305l68.48,548c16.06,128.46,123.64,221.5,267.1,231l963.91,63.82c287.78,19,367,342.7,129.27,528.16L3800,1399.53c-147,114.68-183.74,301.73-83.48,424.93l79,97.06c203.17,249.66-159.14,623.31-469.28,484l-553.5-248.68c-70.52-31.68-155.29-36.89-238.12-14.63l-2430,653.13q-6.58,1.89-13.07,3.51l-11.27,3-28.54,8.68,2520.72-591.23c89.05-20.89,179.59-12,254.31,25.07l586.49,290.67c328.63,162.87,724.1-227.57,512.24-505.71l-82.36-108.14c-104.56-137.26-61.23-338.32,98.42-456.77L4406,1119.88c258.19-191.55,180.47-545-126.84-576.77L3249.79,436.64c-153.2-15.85-266.23-120.74-280.62-260.43l-61.4-595.83c-14.53-141-112.74-225.64-233.05-252.83q-11.05,6.62-22.35,12.83a677.1,677.1,0,0,1-78.46,55.55,654.09,654.09,0,0,1-75,58.26q-4.84,4.78-9.78,9.48C2637.92-543.45,2778.56-467,2798.8-305Z" transform="translate(3800.02 2367.04)"/><path d="M-462.49,2368.14,1757.42,545.72c50.25-41.26,88.59-92.87,110.69-149L1998.82,64.61c-1.18,2-2.37,3.9-3.59,5.84l-10,21.57-87.83,211.86c-24.85,59.94-67,114.33-121.58,157L-637.22,2347.63c-194.82,152.33-182.36,377.19-49,494.91l41.42,6.78,53.16,7.1,52.34,5.43,51.57,3.83,50.9,2.26,6.76.1C-615.83,2790.2-670.37,2538.8-462.49,2368.14Z" transform="translate(3800.02 2367.04)"/><path d="M-256.47,2882.82l-24.83,5.82,12.56,1.31q17.88-1.8,36.45-5.34Z" transform="translate(3800.02 2367.04)"/><path d="M2170.5-354.8a372,372,0,0,0-25.85,49.47l6.51-2.81Z" transform="translate(3800.02 2367.04)"/><path d="M2104.83-196.38l23.32-56.26-5.46,2.53-22.4,56.92c1.31-.67,2.61-1.35,3.92-2Z" transform="translate(3800.02 2367.04)"/><path d="M-231.86,2877.05l27.62,1.23,4.34-1.13,20.2-5.43-27.71-.41Z" transform="translate(3800.02 2367.04)"/><polygon points="3616.98 5232.64 3644.67 5232.23 3669.03 5225.68 3641.35 5226.93 3616.98 5232.64"/><path d="M2068.64-109.09l10.64-28.39-1.24.81-21.61,54.9,1.32-1Z" transform="translate(3800.02 2367.04)"/><path d="M2195.18-389.69c-6.86,8.6-13.41,17.56-19.57,26.9l9.46-3.79Z" transform="translate(3800.02 2367.04)"/><path d="M-308.32,2885.84l-25,5a353.37,353.37,0,0,0,39.1.8l13-3Z" transform="translate(3800.02 2367.04)"/><polygon points="3541.29 5242.9 3516.61 5247.87 3543.55 5249.87 3568.16 5244.1 3541.29 5242.9"/><polygon points="5961.48 2054.46 5951.18 2058.9 5928.18 2114.4 5937.06 2110.28 5961.48 2054.46"/><polygon points="3565.8 5237.97 3592.61 5238.36 3616.98 5232.64 3590.22 5233.05 3565.8 5237.97"/><path d="M-160.93,2856.16l-24.47,4.93,26.73-1.21,23-5.4-4.58.12Z" transform="translate(3800.02 2367.04)"/><path d="M2038.56-31.62l7.32-16.75L2059.23-84l-1.48,1.17-17.91,43.2-4.32,11Z" transform="translate(3800.02 2367.04)"/><path d="M-361.23,2887.58q13.22,2.15,27,3.24l-25.78-3.45Z" transform="translate(3800.02 2367.04)"/><polygon points="5999.87 1994.54 5985.1 2000.46 5961.48 2054.46 5974.87 2048.68 5999.87 1994.54"/><polygon points="3490.31 5245.92 3465.31 5250.14 3491.7 5252.88 3516.61 5247.87 3490.31 5245.92"/><polygon points="3539.66 5237.58 3515.07 5241.73 3541.29 5242.9 3565.8 5237.97 3539.66 5237.58"/><path d="M2148.93-262.28,2137-256.76,2125-229.22a349,349,0,0,1,21.56-27.91Z" transform="translate(3800.02 2367.04)"/><polygon points="3564.14 5233.44 3590.22 5233.05 3614.62 5228.14 3588.6 5229.31 3564.14 5233.44"/><path d="M-164.08,2854.27l-22.83,3.85,26-2,7.62-1.53C-156.92,2854.56-160.52,2854.45-164.08,2854.27Z" transform="translate(3800.02 2367.04)"/><path d="M2020.51,15.72,2027.68.21l12.57-33.54c-.57.57-1.12,1.15-1.69,1.71L2019.93,11l-4.26,10.82C2017.3,19.78,2018.92,17.76,2020.51,15.72Z" transform="translate(3800.02 2367.04)"/><path d="M2243.09-432l-13.75,5.09q-4,3.82-7.94,7.78l-21.55,46.65,17.64-7.07Z" transform="translate(3800.02 2367.04)"/><path d="M-382.47,2883.4c4.05.94,8.15,1.82,12.29,2.61l10.18,1.36,25.29-4.27-26-2.7Z" transform="translate(3800.02 2367.04)"/><polygon points="3489.32 5240.59 3464.47 5244 3490.31 5245.92 3515.07 5241.73 3489.32 5240.59"/><path d="M2169.73-281.7l21.3-43.66-16.19,7-25.91,56.09,3.65-1.69Q2160.88-273.17,2169.73-281.7Z" transform="translate(3800.02 2367.04)"/><polygon points="3538.56 5233.83 3514 5237.2 3539.66 5237.58 3564.14 5233.44 3538.56 5233.83"/><polygon points="3563.09 5230.46 3588.6 5229.31 3613.11 5225.17 3587.66 5227.09 3563.09 5230.46"/><path d="M2013.24,38.75l9.9-26.42c-.87,1.13-1.74,2.27-2.63,3.39l-16.58,35.91-5.11,13Q2006.49,51.91,2013.24,38.75Z" transform="translate(3800.02 2367.04)"/><path d="M-187.65,2856.65l22.87-2.42-3.65-.22Z" transform="translate(3800.02 2367.04)"/><path d="M2264.79-440l13.6-26.38q-15,10.2-29.18,21.87L2243.09-432Z" transform="translate(3800.02 2367.04)"/><polygon points="3413.73 5244.79 3439.37 5247.45 3464.47 5244 3438.94 5242.11 3413.73 5244.79"/><polygon points="6037.83 1979.34 6017.51 1987.47 5991.06 2041.68 6009.87 2033.56 6037.83 1979.34"/><polygon points="3488.67 5236.83 3463.9 5239.46 3489.32 5240.59 3514 5237.2 3488.67 5236.83"/><polygon points="3537.93 5231.6 3513.32 5234.21 3538.56 5233.83 3563.09 5230.46 3537.93 5231.6"/><polygon points="3587.66 5227.09 3612.38 5223.7 3562.57 5228.98 3587.66 5227.09"/><path d="M-411.36,2875.14q6.15,2.1,12.46,3.94l12.6-1.34Z" transform="translate(3800.02 2367.04)"/><polygon points="6060.71 1970.17 6089.12 1918 6064.82 1926.99 6037.83 1979.34 6060.71 1970.17"/><polygon points="3413.59 5240.23 3438.94 5242.11 3463.9 5239.46 3438.67 5238.34 3413.59 5240.23"/><path d="M2231.32-343q-6.43,3-13,5.8l-8.51,3.67-15.55,30.15q12.51-10,25.74-18.91Z" transform="translate(3800.02 2367.04)"/><polygon points="3488.3 5234.59 3463.55 5236.46 3488.67 5236.83 3513.32 5234.21 3488.3 5234.59"/><polygon points="3513 5232.73 3537.93 5231.6 3562.57 5228.98 3513 5232.73"/><path d="M2316-459l24-41.67q-15.87,7.09-31.2,15.59l-19.62,36Z" transform="translate(3800.02 2367.04)"/><path d="M2256.16-355l29.93-52.05-25.4,10.18L2231.32-343Q2243.89-348.72,2256.16-355Z" transform="translate(3800.02 2367.04)"/><path d="M-420.87,2871.73q4.62,1.76,9.34,3.35l25.1-1.89-25.25-1.87Z" transform="translate(3800.02 2367.04)"/><polygon points="3413.53 5237.22 3438.67 5238.34 3463.55 5236.46 3438.52 5236.09 3413.53 5237.22"/><polygon points="3463.38 5234.97 3488.3 5234.59 3513 5232.73 3463.38 5234.97"/><path d="M2287.59-407.66q13.68-5.47,27-11.57l30.73-50.63L2316-459l-29.86,51.92Z" transform="translate(3800.02 2367.04)"/><path d="M2274.17-352.57l11.2-18.45q-14.35,8.37-29.21,16l-9.42,16.39Q2260.23-346.15,2274.17-352.57Z" transform="translate(3800.02 2367.04)"/><path d="M-427.09,2869.29l2.76,1.09,12.65.94,25.18-1.14-25.13-1.12Z" transform="translate(3800.02 2367.04)"/><polygon points="3438.52 5236.09 3463.38 5234.97 3413.5 5235.73 3438.52 5236.09"/><path d="M2361.1-475.69q8.33-3.07,16.54-6.39L2404-523.19q-16.24,4.26-32.22,9.87l-26.38,43.46Z" transform="translate(3800.02 2367.04)"/><path d="M2320.79-393.31l27-42.12q-16.29,8.55-33.13,16.2L2285.37-371Q2303.49-381.58,2320.79-393.31Z" transform="translate(3800.02 2367.04)"/><path d="M-429.55,2868.26l17.92.8,25.11-.38-43.56-.64Z" transform="translate(3800.02 2367.04)"/><path d="M2387.35-458.06c2.38-3.37,4.74-6.76,7.05-10.18l20.23-29.95q-18.21,8.6-37,16.11l-29.87,46.65Q2368-446.06,2387.35-458.06Z" transform="translate(3800.02 2367.04)"/><path d="M2300.52-363.54q2.45-.91,4.9-1.8a580.67,580.67,0,0,0,53.93-56.34q-18.69,14.9-38.56,28.37l-1.68,2.63Q2310.23-376.82,2300.52-363.54Z" transform="translate(3800.02 2367.04)"/><path d="M2468.5-534.82q-16.08,1.59-32.16,4.48l-21.71,32.15q21.87-10.33,42.86-22.21Q2463.1-527.52,2468.5-534.82Z" transform="translate(3800.02 2367.04)"/><path d="M2427.34-485q-19.44,14.19-40,26.93-13.28,18.74-28,36.38A606.46,606.46,0,0,0,2427.34-485Z" transform="translate(3800.02 2367.04)"/><path d="M2483.77-536q-12.95,8.12-26.28,15.64-14.38,18.28-30.15,35.41a632.65,632.65,0,0,0,61.74-51.34C2487.31-536.25,2485.54-536.15,2483.77-536Z" transform="translate(3800.02 2367.04)"/><path d="M-106.53,2852.06l3.41-.26a397.54,397.54,0,0,0,47.82-9.2l-26.53,2.82Z" transform="translate(3800.02 2367.04)"/><polygon points="3743.24 5205.73 3772.34 5201.74 3798.01 5193.93 3768.78 5198.86 3743.24 5205.73"/><polygon points="3795.02 5191.81 3824.39 5185.9 3851.72 5177.59 3822.15 5184.52 3795.02 5191.81"/><path d="M2104.39-195.32l-.18.09a348.27,348.27,0,0,0-19.1,42.2l-5.83,15.55,1.55-1Z" transform="translate(3800.02 2367.04)"/><path d="M-134.21,2854.15l-1.41.33q13.75-.49,28-2.14l1.07-.28Z" transform="translate(3800.02 2367.04)"/><polygon points="3690.48 5215.4 3718.19 5212.46 3743.24 5205.73 3715.47 5209.54 3690.48 5215.4"/><polygon points="3740.93 5203.57 3768.78 5198.86 3795.02 5191.81 3767.05 5197.44 3740.93 5203.57"/><path d="M2111.91-199.32l13.08-29.9a345.17,345.17,0,0,0-20.16,32.84l-.44,1.06Q2108.17-197.3,2111.91-199.32Z" transform="translate(3800.02 2367.04)"/><path d="M2062.7-86.82l24.42-55.81q-3.13,2.08-6.29,4.14l-12.19,29.4L2059.23-84C2060.4-84.92,2061.55-85.88,2062.7-86.82Z" transform="translate(3800.02 2367.04)"/><path d="M-136.26,2851.2l-17.05,3.43q6.5.1,13.11,0l6-.45,24.66-5.79Z" transform="translate(3800.02 2367.04)"/><polygon points="3688.72 5213.22 3715.47 5209.54 3740.93 5203.57 3714.14 5208.1 3688.72 5213.22"/><path d="M2096.7-149.2l25.9-56.07q-5.31,3-10.69,6l-24.79,56.69Q2092-145.87,2096.7-149.2Z" transform="translate(3800.02 2367.04)"/><path d="M2045.78-39l25.35-54.87q-4.17,3.55-8.43,7l-16.82,38.45-5.63,15Q2043-36.14,2045.78-39Z" transform="translate(3800.02 2367.04)"/><polygon points="3662.76 5216.78 3637.79 5221 3663.76 5218.24 3688.72 5213.22 3662.76 5216.78"/><path d="M2163.63-269.22q-5,2.46-10.12,4.82l-.93.43c-2,2.25-4,4.53-6,6.84l-24,51.86c4.63-2.64,9.22-5.32,13.77-8.08Z" transform="translate(3800.02 2367.04)"/><path d="M2083.26-104.52l26.34-54q-6.37,4.74-12.9,9.31l-25.57,55.35Q2077.28-99.1,2083.26-104.52Z" transform="translate(3800.02 2367.04)"/><path d="M2032.11.28l10-20.56q5.85-14.8,13-28.64-4.59,5-9.33,9.94L2027.68.21l-4.54,12.12Q2027.73,6.37,2032.11.28Z" transform="translate(3800.02 2367.04)"/><path d="M-164.78,2854.23l.7,0,1.85-.32Z" transform="translate(3800.02 2367.04)"/><path d="M2181.33-278.18l13-25.16q-12.71,10.21-24.57,21.64l-6.1,12.48Q2172.57-273.55,2181.33-278.18Z" transform="translate(3800.02 2367.04)"/><path d="M2153.46-224.13q-8.43,5.53-17.09,10.78l-26.77,54.84q8.49-6.3,16.68-12.91Z" transform="translate(3800.02 2367.04)"/><path d="M2092.73-106.34l7.2-14q-8.14,8.07-16.67,15.79l-19.14,39.21A326.22,326.22,0,0,1,2092.73-106.34Z" transform="translate(3800.02 2367.04)"/><path d="M2174.46-238.55l27.94-51.3q-10.41,6-21.07,11.67l-27.87,54.05Q2164.14-231.12,2174.46-238.55Z" transform="translate(3800.02 2367.04)"/><path d="M2123.84-145.61l24-44.09q-10.53,9.4-21.57,18.28l-26.35,51.11Q2112.34-132.58,2123.84-145.61Z" transform="translate(3800.02 2367.04)"/><path d="M2246.74-338.62q-13.63,7.61-26.7,16.37l-17.64,32.4q12.79-7.42,25.16-15.43Z" transform="translate(3800.02 2367.04)"/><path d="M2177-217.76q3.14-5.15,6.14-10.34l17.57-30.56q-12.83,10.41-26.29,20.11l-26.61,48.85Q2163-203.22,2177-217.76Z" transform="translate(3800.02 2367.04)"/><path d="M2248.68-310.56l9.77-16.1q-15.07,11.16-30.89,21.38l-26.81,46.62q17.3-14,33.4-29.32Q2241.71-299.08,2248.68-310.56Z" transform="translate(3800.02 2367.04)"/><path d="M2294.88-355.93q2.85-3.78,5.64-7.61-13.32,5-26.35,11l-15.72,25.91Q2277.26-340.59,2294.88-355.93Z" transform="translate(3800.02 2367.04)"/><path d="M2603.13-62.75l74.76,452.62C2695.41,496,2790.41,566.52,2913.74,565l828.63-10.16c247.4-3,324.81,261.75,126.33,432.11l-357,306.43c-122.73,105.34-148.77,263.8-59.17,360l70.58,75.78c181.57,194.91-118.26,530.46-388.35,434.62l-482-171.05c-61.41-21.79-134.27-20.56-204.67,3.46L142.35,2783l2350.72-715.19c76.61-23.3,155.49-21.48,221.57,5.11l518.65,208.78c290.61,117,621-238.35,427.95-460.25l-75-86.26c-95.28-109.51-64.3-282.35,70.38-392.65l391.78-320.89c217.8-178.39,138.69-472.47-129.1-479.91l-897-24.91c-133.5-3.71-235.06-85.29-252.16-202.55L2697.2-185.94c-26.77-183.63-224-239.84-391.78-179.4q-5.22,4.77-10.54,9.41A557,557,0,0,1,2234.15-288,531.42,531.42,0,0,1,2177-217.76a505.29,505.29,0,0,1-53.2,72.15l-1.15,2.11q-3.06,5.61-6.28,11.13C2273.56-288.08,2567.72-277.11,2603.13-62.75Z" transform="translate(3800.02 2367.04)"/><path d="M-85.88,2841.05-33,2830.4l55.1-12.92,58.1-15.62,4.91-1.5c-272,63.25-423.07-218.72-201.14-418.55L1734.79,715.46c41.89-37.72,73.27-83.31,90.58-131.61L2037.12-6.81q-2.47,3.55-5,7.09l-15.11,31c-1.22,2.51-2.48,5-3.76,7.51L1844.09,490.09c-19.59,52.27-54.35,100.95-100.36,140.54L-288.62,2379.51c-217.55,187.21-114.63,459.23,120.19,474.5l31.16-4.27Z" transform="translate(3800.02 2367.04)"/><path d="M91.5,2798.83l13.07-3.51c6.45-1.86,13-3.89,19.55-6.14l18.23-6.22-57.21,17.4Q88.31,2799.63,91.5,2798.83Z" transform="translate(3800.02 2367.04)"/><path d="M2064.12-65.31q-4.71,8-9,16.39c.74-.81,1.47-1.62,2.2-2.44Z" transform="translate(3800.02 2367.04)"/><path d="M2037.12-6.81A455.11,455.11,0,0,0,2067.28-57l8-15.47q-8.67,10.78-18,21.09l-15.16,31.08c-1.3,3.27-2.56,6.56-3.76,9.91Z" transform="translate(3800.02 2367.04)"/><path d="M2116.41-132.37a337,337,0,0,0-23.68,26l-17.47,33.89A481.24,481.24,0,0,0,2116.41-132.37Z" transform="translate(3800.02 2367.04)"/><path d="M1999.93,133.44,1812,677.76c-15.28,44.24-43.47,86.58-81.4,122.24L55,2375.13c-210.33,197.73-45.1,460.79,225,358.14l2119.66-805.69c64.2-24.41,130.95-28.35,187.48-11.08l443.73,135.56c248.63,76,519.28-238.39,350.55-407.16l-65.59-65.61c-83.26-83.29-61.32-227.24,49.85-327L3689,962c179.78-161.4,105.64-397.25-121-384.89l-759.1,41.39c-113,6.16-200.88-53.78-218.22-148.82l-74-405.39C2474.21-168.7,2086.33-116.76,1999.93,133.44Zm438.2,61.25,70.64,358.59c16.56,84.07,96.84,133.87,199.32,123.64l688.53-68.71C3602.19,587.7,3671.51,795,3509.74,946.54l-291,272.56c-100,93.69-118.7,223.05-42.41,293.87l60.09,55.79c154.57,143.51-88.33,435.31-314.62,378L2518,1844.34c-51.45-13-112-6.72-170.05,17.74L431.29,2669.68c-244.19,102.89-396.4-124.9-207.23-310.12L1731,884.06c34.11-33.4,59.33-72.36,72.82-112.48l165.88-493.51C2046,51.22,2397.53-11.36,2438.13,194.69Z" transform="translate(3800.02 2367.04)"/><path d="M1947.82,423.16,1801,865.11c-11.93,35.92-34.39,71.36-64.85,102.32L390.76,2335.21c-168.88,171.69-31.52,365.17,187,263.4L2293.1,1799.82c52-24.2,106.22-32.54,152.4-23.43l362.5,71.54c203.12,40.08,419.76-227.88,280.61-347.07l-54.1-46.34c-68.67-58.83-52.43-173.53,36.89-260.58l259.82-253.23c144.45-140.78,81.49-320.06-102.74-292.56l-617.08,92.1c-91.84,13.71-164-26.43-179.2-99.65l-64.74-312.34C2330.26,148.79,2015.3,220,1947.82,423.16Zm357,41.45,56.31,266.74c13.2,62.53,76.8,93.51,157.9,76.91L3064,696.72c162.68-33.3,217.77,118.46,89.9,247.66l-230,232.4c-79.06,79.89-93.7,179.91-33.24,227.23l47.62,37.27c122.51,95.88-69.43,338.78-248.6,314.62l-319.77-43.12c-40.74-5.49-88.65,4.52-134.58,28.13L719.13,2520.29c-193.16,99.3-313.89-60.9-164.36-218.09L1745.92,1049.94c27-28.35,46.89-60.16,57.51-91.83l130.76-389.74C1994.3,389.22,2272.48,311.35,2304.84,464.61Z" transform="translate(3800.02 2367.04)"/><path d="M1928.83,713.34l-117.75,337c-9.58,27.39-27.18,55.46-50.82,81L715.72,2260.66C584.6,2402.42,687,2530.45,855.06,2435l1319.56-749.49c40-22.7,81.49-34,116.62-31.85L2567,1670.8c154.51,9.62,323.33-207.08,218.65-280.68L2745,1361.51c-51.66-36.32-37.79-121.67,31.51-193.9l201.58-210.12c112.07-116.81,66.33-241.67-74.65-203.75l-472.18,127c-70.28,18.9-124.85-3.43-135.49-55.45L2250.35,603.4C2224.27,475.91,1983,558.42,1928.83,713.34Zm275.26,30.94,32,177.88c7.5,41.7,52.62,55.93,112,35.32L2747.19,819c119.15-41.34,154.09,57.27,57,160.92L2629.6,1166.39c-60,64.09-74,134.83-31.66,160.69l33.32,20.38c85.7,52.41-61.62,241.82-190.83,245.33l-230.59,6.26c-29.37.8-64.47,13.11-98.58,34.6l-1126,709.22c-143.45,90.36-225.73-6.68-112-132.11l905.85-999.2c20.5-22.62,36-46.83,44.78-69.91l107.81-283.93C1981.26,727.21,2185.7,642.06,2204.09,744.28Z" transform="translate(3800.02 2367.04)"/><path d="M1942.79,1001.17l-100.94,230.59c-8.21,18.74-21.86,39-39.41,58.54l-775.35,862.34c-97.33,108.25-36.76,175.55,82.46,91.62l935.82-658.75c28.35-20,57-32.9,80.49-36.36L2310.21,1522c103.3-15.21,230.81-176.32,165.16-208.68l-25.52-12.58c-32.39-16-17.56-72.17,33.71-127.67l149.13-161.45c82.9-89.75,60.19-162.84-37.06-119.27L2269.87,1038.3c-48.48,21.72-83.74,15-87.54-16.57l-16.21-134.85C2156.8,809.4,1989.18,895.18,1942.79,1001.17Zm193.7,29.7-2,92.87c-.46,21.77,24.57,21.46,62.13-.78L2449,973.57c75.35-44.61,84.44,3.75,14.83,78.91l-125.21,135.19c-43,46.47-59.6,88.25-37.61,94.91l17.32,5.24c44.55,13.49-64.87,145.37-141.73,170.81L2039.48,1504c-17.47,5.79-39.69,19-62.39,37.13l-749.51,598.24c-95.48,76.21-132.77,37.34-50.75-52.92l653.33-719.09c14.79-16.28,26.81-32.53,34.71-46.93L1962,1143.34C2006.66,1061.92,2137.62,977.51,2136.49,1030.87Z" transform="translate(3800.02 2367.04)"/><path d="M2092.81,1227.93l22.45-52c12.91-29.91-81.62,51.16-125.94,108l-96.43,123.68c-7.83,10.05-18.47,22.21-30.69,35.11l-540,569.79c-67.79,71.52-55.32,83.35,17,16.1l567.46-527.87c17.19-16,33-29.13,44.33-36.9l89.13-61c49.94-34.21,143-136,120.55-131.83l-8.73,1.62c-11.09,2,8-25.46,43.38-62.5l102.9-107.74c57.2-59.9,63.09-84.36,9.61-39.92l-179.13,148.87C2102,1233.41,2087.54,1240.13,2092.81,1227.93Z" transform="translate(3800.02 2367.04)"/></g></svg>